<?xml version="1.0" encoding="utf-8"?>
<!-- Generator: Adobe Illustrator 17.1.0, SVG Export Plug-In . SVG Version: 6.00 Build 0)  -->
<!DOCTYPE svg PUBLIC "-//W3C//DTD SVG 1.1//EN" "http://www.w3.org/Graphics/SVG/1.1/DTD/svg11.dtd">
<svg version="1.1" id="Blogger" xmlns="http://www.w3.org/2000/svg" xmlns:xlink="http://www.w3.org/1999/xlink" x="0px" y="0px"
	 viewBox="0 0 93 93" enable-background="new 0 0 93 93" xml:space="preserve">
<path d="M88.665,40.926c0-2.761-2.239-5-5-5H77.78c-2.779-0.435-3.831-1.795-3.831-4.605h-0.19
	C73.457,16.243,60.997,4.11,45.66,4.11H31.487c-15.526,0-28.112,12.432-28.112,27.767v28.684c0,3.838,0.789,7.494,2.214,10.819
	c3.504,9.845,13.434,16.948,25.146,16.948h0.752H45.66h16.503c14.637,0,26.502-11.089,26.502-24.767
	c0-0.629-0.034-1.251-0.083-1.869c0.045-0.269,0.083-0.541,0.083-0.822V40.926z M31.081,26.137h14.984
	c2.859,0,5.176,2.191,5.176,4.895c0,2.703-2.318,4.895-5.176,4.895H31.081c-2.859,0-5.176-2.191-5.176-4.895
	C25.905,28.328,28.222,26.137,31.081,26.137z M61.219,65.87H31.188c-2.918,0-5.283-2.191-5.283-4.895
	c0-2.703,2.365-4.895,5.283-4.895h30.031c2.918,0,5.283,2.191,5.283,4.895C66.502,63.679,64.137,65.87,61.219,65.87z"/>
</svg>
