<?xml version="1.0" encoding="utf-8"?>
<!-- Generator: Adobe Illustrator 17.0.0, SVG Export Plug-In . SVG Version: 6.00 Build 0)  -->
<!DOCTYPE svg PUBLIC "-//W3C//DTD SVG 1.1//EN" "http://www.w3.org/Graphics/SVG/1.1/DTD/svg11.dtd">
<svg version="1.1" id="Layer_1" xmlns="http://www.w3.org/2000/svg" xmlns:xlink="http://www.w3.org/1999/xlink" x="0px" y="0px"
	 width="800px" height="350px" viewBox="0 0 800 350" enable-background="new 0 0 800 350" xml:space="preserve">
<path fill="#EF7622" stroke="#231F20" stroke-width="0.25" d="M119.356,319.386"/>
<path fill="#EF7622" stroke="#231F20" stroke-width="0.25" d="M2.444,307.42"/>
<path fill="#EF7622" stroke="#231F20" stroke-width="0.25" d="M12.94,290.081"/>
<path fill="#EF7622" stroke="#231F20" stroke-width="0.25" d="M73.002,259.964"/>
<g>
	<path fill="#0D2240" d="M243.871,159.302c-1.782,5.231-6.39,16.125-6.39,21.152c0,6.384,7.228,6.384,11.936,7.122v1.568h-28.691
		v-1.568c9.32-2.514,10.264-4.609,13.509-12.782l11.83-30.887l6.283-17.071c0.946-2.718,2.306-5.231,1.155-7.221
		c2.826-1.157,5.444-3.037,7.644-5.66l23.033,61.362c2.83,7.649,4.609,10.68,12.988,12.258v1.568H266.38v-1.568
		c3.668-0.84,8.066-1.997,8.066-6.704c0-4.401-3.98-14.245-6.704-21.571H243.871z M255.49,127.255l-9.844,27.224h20.733
		L255.49,127.255z"/>
	<path fill="#0D2240" d="M397.844,117.939v1.571c-9.53,1.044-10.154,6.908-10.574,20.734l-0.628,22.928
		c-0.316,13.51-6.075,27.227-29.321,27.227c-32.458,0-29.11-23.459-29.11-31.829v-23.462c-0.316-10.785-0.42-13.925-12.984-15.598
		v-1.571h36.128v1.571c-13.717,1.986-13.932,4.082-13.932,15.598v21.465c0,1.996-3.347,29.006,25.343,29.006
		c22.618,0,20.421-21.571,20.421-34.346v-10.989c0-13.302-1.051-19.374-15.707-20.734v-1.571H397.844z"/>
	<path fill="#0D2240" d="M460.043,151.554c9.53,2.194,23.248,6.595,23.248,18.952c0,19.37-25.027,18.952-30.261,18.846
		l-28.795-0.207v-1.568c12.563-1.677,12.67-4.823,12.981-15.608v-36.332c-0.311-10.785-0.418-13.925-12.355-15.503v-1.568
		l21.26-0.837c11.726-0.418,32.46,0.731,32.46,17.282c0,10.262-10.263,14.238-18.537,16.333V151.554z M446.431,171.029
		c0,8.167-0.524,15.915,10.158,15.915c9.11,0,15.498-5.973,15.498-15.183c0-6.388-5.969-19.057-21.571-18.326l-4.085,0.208V171.029z
		 M446.431,151.448c9.74-0.106,21.782-2.728,21.782-14.87c0-12.568-11.102-16.445-21.782-16.445V151.448z"/>
	<path fill="#0D2240" d="M596.797,117.939v1.571c-9.53,1.044-10.154,6.908-10.573,20.734l-0.633,22.928
		c-0.313,13.51-6.071,27.227-29.319,27.227c-32.457,0-29.108-23.459-29.108-31.829v-23.462
		c-0.316-10.785-0.419-13.925-12.983-15.598v-1.571h36.126v1.571c-13.717,1.986-13.93,4.082-13.93,15.598v21.465
		c0,1.996-3.349,29.006,25.341,29.006c22.615,0,20.421-21.571,20.421-34.346v-10.989c0-13.302-1.051-19.374-15.707-20.734v-1.571
		H596.797z"/>
	<path fill="#0D2240" d="M636.063,139.51c0-16.023-0.519-18.431-12.25-19.476v-1.469l25.549-0.837
		c26.385-0.84,28.48,12.041,28.48,17.068c0,8.799-5.44,13.826-12.981,17.176l0.519,0.731c8.066,14.139,18.12,32.145,35.397,35.71
		l-0.313,1.568c-11.098-0.524-19.27-0.211-25.341-6.496c-6.91-7.221-12.355-16.438-14.557-20.938
		c-4.189-8.69-7.959-6.177-15.287-7.435v16.857c0,11.517,0.212,13.612,14.556,15.608v1.568h-36.752v-1.568
		c12.561-1.677,12.668-4.823,12.981-15.608V139.51z M645.279,153.329c10.054-0.099,21.778-4.708,21.778-16.333
		c0-12.255-10.787-17.173-21.778-17.068V153.329z"/>
	<path fill="#0D2240" d="M784.862,172.7l-0.526-38.217c-0.1-9.945-2.826-12.877-14.656-14.972v-1.571h28.588v1.571
		c-7.229,0.942-8.592,4.918-9.43,11.728c-1.463,11.52-0.937,36.754-0.418,59.583l-1.357,0.313
		c-16.756-19.792-35.395-38.118-53.09-57.175v19.272c0,25.965-0.633,31.305,14.556,34.346v1.568h-31.314v-1.568
		c14.137-1.469,13.619-11.105,13.619-34.873v-15.707c0-10.473-1.675-14.554-14.974-17.486v-1.571h17.275L784.862,172.7z"/>
</g>
<g>
	<polyline fill="#EF7622" points="796.622,234.137 796.622,229.984 219.286,229.984 219.286,234.137 	"/>
</g>
<g>
	<g>
		<g>
			<polygon fill-rule="evenodd" clip-rule="evenodd" fill="#EF7622" points="89.283,39.503 92.667,40.498 112.158,74.237 
				133.904,74.237 136.91,79.303 112.979,79.536 104.765,72.933 96.065,79.892 89.282,74.048 89.283,42.31 			"/>
			<polygon fill-rule="evenodd" clip-rule="evenodd" fill="#EF7622" points="132.982,84.217 140.769,103.354 119.073,84.512 
				132.982,84.217 			"/>
			<polygon fill-rule="evenodd" clip-rule="evenodd" fill="#EF7622" points="66.503,75.234 36.517,75.234 41.96,82.085 
				61.193,82.085 			"/>
			<path fill-rule="evenodd" clip-rule="evenodd" fill="#EF7622" d="M20.015,190.031"/>
			<path fill-rule="evenodd" clip-rule="evenodd" fill="#EF7622" d="M16.686,189.699"/>
			<g>
				<path fill="#EF7622" d="M117.897,115.29c-2.928,1.654-3.568,6.554-2.168,12.689c-0.468-3.755,0.191-6.612,2.09-7.685
					c3.832-2.163,11.255,3.729,16.581,13.163c5.328,9.434,6.541,18.839,2.707,21.002c-1.345,0.759-3.139,0.507-5.124-0.524
					c3.439,2.49,6.663,3.401,8.93,2.122c4.775-2.697,3.493-14.01-2.862-25.268C131.695,119.532,122.673,112.593,117.897,115.29z
					 M169.484,160.853l-15.051-21.478l4.964-3.575l-6.355-5.759l4.568-3.575l-52.427-45.08l-9.534,6.752l-7.434-7.088l0.07,9.931
					l15.905,16.42l-4.767,13.505l-10.14-10.624v27.806l13.252,11.546l2.872-4.699l45.672,36.312l0.141,7.583l8.988,5.617
					l-1.141-26.987L169.484,160.853z M143.288,163.632c-6.473,3.653-20.256-6.911-28.36-21.272
					c-8.109-14.358-9.024-29.811-2.553-33.465c2.862-1.616,7.102-0.775,11.639,1.9l-1.002-6.985l10.546,8.746l-2.008,4.174
					c3.245,3.217,6.343,7.199,8.903,11.734C148.565,142.826,149.759,159.977,143.288,163.632z"/>
			</g>
			<g>
				<path fill="#EF7622" d="M30.546,155.462c-3.457-2.723-0.823-11.826,5.881-20.337c6.707-8.511,14.945-13.203,18.403-10.476
					c1.213,0.956,1.661,2.708,1.461,4.934c0.997-4.126,0.616-7.453-1.429-9.064c-4.306-3.394-14.285,2.087-22.288,12.24
					c-8,10.155-10.995,21.136-6.687,24.53c2.641,2.082,7.416,0.815,12.56-2.811C35.151,156.336,32.26,156.812,30.546,155.462z"/>
			</g>
			<polygon fill="#EF7622" points="89.27,174.269 12.132,219.423 12.132,225.946 89.27,181.701 			"/>
			<polygon fill="#EF7622" points="71.548,244.956 71.548,237.035 18.46,257.755 18.46,263.5 			"/>
			<polygon fill-rule="evenodd" clip-rule="evenodd" fill="#EF7622" points="15.648,143.214 15.421,168.958 1.732,155.828 
				15.648,143.214 			"/>
			<polyline fill-rule="evenodd" clip-rule="evenodd" fill="#EF7622" points="35.065,222.23 35.065,243.902 26.816,247.266 
				26.816,226.222 			"/>
			<polyline fill-rule="evenodd" clip-rule="evenodd" fill="#EF7622" points="50.576,214.409 50.576,237.409 41.96,241.007 
				41.96,218.715 			"/>
			<polyline fill-rule="evenodd" clip-rule="evenodd" fill="#EF7622" points="66.457,206.423 66.503,230.759 57.626,234.514 
				57.626,210.811 			"/>
			<path fill-rule="evenodd" clip-rule="evenodd" fill="#EF7622" d="M19.346,310.061c0,0,0.954-26.368,1.288-29.817
				c0.632-6.522,12.937-10.835,12.516-0.736l-0.553,34.052L19.346,310.061z"/>
			<path fill-rule="evenodd" clip-rule="evenodd" fill="#EF7622" d="M46.034,317.056c0,0,0.825-37.785,1.078-42.665
				c0.328-6.323,15.5-13.513,16.905-1.49l0.001,48.869L46.034,317.056z"/>
			<polygon fill-rule="evenodd" clip-rule="evenodd" fill="#EF7622" points="135.23,147.234 135.23,144.238 128.484,139.366 
				128.484,128.874 126.611,126.626 125.861,140.49 			"/>
			<g>
				<path fill-rule="evenodd" clip-rule="evenodd" fill="#EF7622" d="M160.791,202.005l-13.345-8.245l3.301-3.93l-45.077-35.235
					l-3.277,5.082l-13.109-11.313l-0.023,25.523l72.94,49.08L160.791,202.005z M162.685,230.164l-73.428-48.145l0.031,145.904
					l78.596-20.503L162.685,230.164z"/>
			</g>
			<path fill="#EF7622" d="M12.11,289.254"/>
			<path fill="#EF7622" d="M73.378,253.299"/>
			<path fill="#EF7622" d="M13.007,282.751"/>
			<path fill="#EF7622" d="M74.275,246.796"/>
		</g>
		<g>
			<polyline fill-rule="evenodd" clip-rule="evenodd" fill="#EF7622" points="15.327,182.079 67.475,148.136 67.475,108.967 
				76.951,118.145 76.951,165.013 70.536,164.003 70.703,152.515 60.547,159.154 60.547,166.965 34.772,183.369 34.649,190.889 
				24.205,197.937 20.55,194.544 29.49,188.5 29.688,179.4 20.289,185.407 			"/>
			<polygon fill-rule="evenodd" clip-rule="evenodd" fill="#EF7622" points="60.424,169.104 71.485,161.887 76.951,165.013 
				65.067,172.298 			"/>
		</g>
		<polygon fill-rule="evenodd" clip-rule="evenodd" fill="#EF7622" points="89.283,41.703 89.283,13.557 94.65,12.432 94.65,24.38 
			101.765,19.07 103.872,22.862 95.218,29.486 103.078,36.517 100.529,40.819 94.65,36.545 94.65,45.15 		"/>
		<polygon fill-rule="evenodd" clip-rule="evenodd" fill="#EF7622" points="86.745,25.467 80.337,20.8 76.935,25.174 83.31,29.983 
					"/>
	</g>
	<g>
		<polygon fill-rule="evenodd" clip-rule="evenodd" fill="#EF7622" points="80.322,80.458 68.819,70.236 7.501,118.275 
			16.875,124.914 9.453,130.773 15.327,134.556 39.068,116.489 36.953,110.585 47.987,102.098 46.641,110.725 67.475,94.869 
			67.474,107.924 89.283,91.972 89.283,74.238 		"/>
	</g>
</g>
<g>
	<path fill="#0D2240" d="M298.203,275.187h14.432v1.296c-4.439,1.156-4.439,1.85-4.809,9.575l-0.323,6.938
		c-0.139,3.653-0.231,7.816-2.915,10.592c-2.729,2.867-6.938,3.84-10.779,3.84c-3.607,0-7.956-0.925-10.683-3.378
		c-3.238-2.915-2.775-7.401-2.775-11.285v-7.309c0-8.371-0.602-8.047-6.105-8.973v-1.296h18.316v1.296
		c-6.382,0.554-6.105,2.684-6.105,8.973v6.476c0,2.684-0.139,6.337,1.342,8.649c1.85,2.823,5.597,3.932,8.835,3.932
		c7.632,0,8.789-5.551,8.602-11.285l-0.323-11.194c-0.139-4.949-2.359-4.673-6.707-5.551V275.187z"/>
	<path fill="#0D2240" d="M337.196,285.594c0-4.765-0.139-8.095-6.014-9.112v-1.296h10.639c5.828,7.588,13.877,15.265,20.537,23.037
		l0.092-0.092l-0.275-14.711c-0.094-5.503-1.481-6.197-6.939-6.939v-1.296h14.061v1.296c-4.071,0.371-4.303,2.313-4.303,9.853
		v20.581l-2.082,1.02c-4.532-5.551-15.54-16.653-23.173-24.887c-0.139,5.18,0.092,10.037,0.279,15.081
		c0.184,5.687,1.201,6.058,6.66,7.214v1.296h-15.171v-1.296c3.376-0.646,5.689-0.463,5.689-6.707V285.594z"/>
	<path fill="#0D2240" d="M400.378,296.373c0,8.37,0.602,8.047,6.105,8.972v1.296h-18.316v-1.296
		c5.503-0.925,6.105-0.602,6.105-8.972v-10.918c0-8.371-0.602-8.047-6.105-8.973v-1.296h18.316v1.296
		c-5.503,0.925-6.105,0.602-6.105,8.973V296.373z"/>
	<path fill="#0D2240" d="M429.516,282.543c-2.265-5.136-2.405-4.857-6.013-6.061v-1.296h16.421v1.296
		c-5.32,1.248-5.597,1.248-2.684,8.095l6.43,15.265l4.025-10.085c4.995-12.534,3.561-12.35-2.361-13.275v-1.296h14.479v1.296
		c-4.303,0.554-5.413,3.517-8.605,10.962l-8.787,20.493l-1.896-0.371L429.516,282.543z"/>
	<path fill="#0D2240" d="M489.045,291.7v6.105c0,4.717,0.048,6.894,6.199,6.894c6.013,0,8.603-3.377,9.899-8.697h1.388
		c0.092,3.609-0.556,7.17-1.667,10.639h-28.03v-1.296c5.505-0.925,6.105-0.602,6.105-8.972v-10.918c0-8.371-0.6-8.047-6.105-8.973
		v-1.296h27.384l-0.879,8.095h-1.434c-0.323-6.058-4.442-6.149-9.483-6.149h-3.378v11.792h3.932c3.98,0,6.061-0.323,7.218-4.531
		h1.201c-0.231,3.928-0.415,7.816-0.184,11.748h-1.296c-0.925-4.534-3.099-4.442-7.122-4.442H489.045z"/>
	<path fill="#0D2240" d="M531.969,284.067c0-6.245-0.323-7.122-6.105-7.585v-1.296h14.384c5.69,0,13.369,0,13.369,7.357
		c0,3.653-2.775,6.337-6.013,7.585c3.423,6.751,8.187,13.969,15.819,15.772l-0.185,1.296c-4.117-0.231-8.881,0.184-12.489-2.313
		c-2.359-1.667-5.041-6.013-6.428-8.602c-2.174-4.163-1.85-3.888-6.245-4.534v4.626c0,6.289-0.277,8.418,7.17,8.972v1.296h-19.38
		v-1.296c5.503-0.925,6.105-0.602,6.105-8.972V284.067z M538.074,290.128c4.303-0.323,8.603-2.174,8.603-7.17
		c0-4.765-4.44-6.058-8.603-6.058V290.128z"/>
	<path fill="#0D2240" d="M599.731,284.53h-1.388c-0.878-3.792-1.988-8-6.753-8c-2.821,0-4.718,2.082-4.718,4.809
		c0,7.493,15.217,6.983,15.217,16.653c0,6.66-6.383,9.435-12.302,9.435c-3.284,0-6.522-0.878-9.391-2.361l-1.526-9.156l1.434-0.279
		c1.527,4.534,4.903,9.666,10.36,9.666c3.054,0,5.32-1.986,5.32-4.993c0-7.819-15.217-7.17-15.217-16.329
		c0-6.153,5.874-9.575,11.517-9.575c2.776,0,5.505,0.694,7.864,2.082L599.731,284.53z"/>
	<path fill="#0D2240" d="M633.497,296.373c0,8.37,0.6,8.047,6.105,8.972v1.296h-18.318v-1.296c5.505-0.925,6.107-0.602,6.107-8.972
		v-10.918c0-8.371-0.602-8.047-6.107-8.973v-1.296h18.318v1.296c-5.505,0.925-6.105,0.602-6.105,8.973V296.373z"/>
	<path fill="#0D2240" d="M657.918,284.115l1.063-10.408h0.971c0.463,0.833,1.11,1.248,1.804,1.388
		c0.74,0.139,1.527,0.092,2.359,0.092h19.566c1.665,0,3.238,0.231,4.163-1.48h0.971l1.065,10.408l-1.296,0.231
		c-1.85-6.568-5.272-7.214-11.656-7.214v19.241c0,8.37,0.602,8.047,6.939,8.972v1.296h-19.982v-1.296
		c6.338-0.925,6.938-0.602,6.938-8.972v-19.241c-6.382,0-9.714,0.646-11.61,7.214L657.918,284.115z"/>
	<path fill="#0D2240" d="M725.68,296.373c0,6.289-0.277,8.418,6.707,8.972v1.296h-19.52v-1.296c6.105-0.925,6.707-0.602,6.707-8.972
		v-2.129l-5.18-10.5c-2.082-4.207-2.684-6.197-7.818-7.262v-1.296h16.051v1.296c-3.238,0.833-4.764,0.463-2.082,6.105l4.024,8.466
		l2.498-5.088c3.932-8.003,3.099-8.418-1.017-9.483v-1.296h13.459v1.296c-3.93,0.833-5.828,1.803-7.724,5.272l-5.272,9.762
		l-0.833,1.759V296.373z"/>
</g>
<g>
</g>
<g>
</g>
<g>
</g>
<g>
</g>
<g>
</g>
<g>
</g>
<g>
</g>
<g>
</g>
<g>
</g>
<g>
</g>
<g>
</g>
<g>
</g>
<g>
</g>
<g>
</g>
<g>
</g>
</svg>
