<?xml version="1.0" encoding="utf-8"?>
<!-- Generator: Adobe Illustrator 17.0.0, SVG Export Plug-In . SVG Version: 6.00 Build 0)  -->
<!DOCTYPE svg PUBLIC "-//W3C//DTD SVG 1.1//EN" "http://www.w3.org/Graphics/SVG/1.1/DTD/svg11.dtd">
<svg version="1.1" id="Layer_1" xmlns="http://www.w3.org/2000/svg" xmlns:xlink="http://www.w3.org/1999/xlink" x="0px" y="0px"
	 width="792px" height="612px" viewBox="0 0 792 612" enable-background="new 0 0 792 612" xml:space="preserve">
<path fill="none" stroke="#000000" stroke-width="0.25" d="M413.611,306.224"/>
<path fill="none" stroke="#000000" stroke-width="0.25" d="M346.476,299.353"/>
<path fill="none" stroke="#000000" stroke-width="0.25" d="M352.503,289.396"/>
<path fill="none" stroke="#000000" stroke-width="0.25" d="M386.993,272.101"/>
<g>
	<path fill="#002B5C" d="M245.445,357.631c-1.023,3.004-3.669,9.26-3.669,12.146c0,3.666,4.15,3.666,6.854,4.09v0.9h-16.475v-0.9
		c5.352-1.443,5.894-2.647,7.757-7.34l6.793-17.736l3.608-9.803c0.542-1.561,1.323-3.004,0.663-4.147
		c1.623-0.664,3.125-1.744,4.39-3.25l13.227,35.236c1.625,4.393,2.646,6.133,7.458,7.039v0.9h-17.68v-0.9
		c2.106-0.482,4.632-1.147,4.632-3.85c0-2.527-2.285-8.18-3.849-12.387H245.445z M252.117,339.229l-5.653,15.633h11.906
		L252.117,339.229z"/>
	<path fill="#002B5C" d="M333.861,333.879v0.902c-5.472,0.6-5.83,3.967-6.071,11.906l-0.361,13.166
		c-0.182,7.758-3.488,15.635-16.837,15.635c-18.638,0-16.715-13.471-16.715-18.277v-13.473c-0.182-6.193-0.241-7.996-7.456-8.957
		v-0.902h20.746v0.902c-7.877,1.141-7.999,2.344-7.999,8.957v12.326c0,1.146-1.923,16.656,14.552,16.656
		c12.988,0,11.726-12.387,11.726-19.723v-6.31c0-7.639-0.603-11.125-9.019-11.906v-0.902H333.861z"/>
	<path fill="#002B5C" d="M369.579,353.182c5.472,1.26,13.349,3.787,13.349,10.883c0,11.123-14.371,10.883-17.377,10.822
		l-16.534-0.119v-0.9c7.213-0.963,7.274-2.77,7.454-8.963v-20.863c-0.179-6.193-0.24-7.996-7.095-8.902v-0.9l12.208-0.48
		c6.734-0.24,18.64,0.42,18.64,9.924c0,5.893-5.894,8.176-10.644,9.379V353.182z M361.762,364.365c0,4.69-0.302,9.139,5.833,9.139
		c5.232,0,8.899-3.43,8.899-8.719c0-3.668-3.427-10.943-12.387-10.523l-2.345,0.119V364.365z M361.762,353.121
		c5.592-0.061,12.507-1.566,12.507-8.539c0-7.217-6.375-9.443-12.507-9.443V353.121z"/>
	<path fill="#002B5C" d="M448.107,333.879v0.902c-5.473,0.6-5.831,3.967-6.071,11.906l-0.363,13.166
		c-0.18,7.758-3.486,15.635-16.836,15.635c-18.638,0-16.715-13.471-16.715-18.277v-13.473c-0.182-6.193-0.24-7.996-7.455-8.957
		v-0.902h20.745v0.902c-7.877,1.141-7.999,2.344-7.999,8.957v12.326c0,1.146-1.923,16.656,14.552,16.656
		c12.986,0,11.727-12.387,11.727-19.723v-6.31c0-7.639-0.603-11.125-9.02-11.906v-0.902H448.107z"/>
	<path fill="#002B5C" d="M470.655,346.266c0-9.201-0.298-10.584-7.034-11.184v-0.844l14.671-0.48
		c15.151-0.482,16.354,6.914,16.354,9.801c0,5.053-3.124,7.939-7.454,9.863l0.298,0.42c4.632,8.119,10.405,18.459,20.326,20.506
		l-0.18,0.9c-6.373-0.301-11.065-0.121-14.552-3.73c-3.968-4.147-7.095-9.44-8.359-12.023c-2.405-4.99-4.57-3.547-8.778-4.27v9.68
		c0,6.613,0.122,7.816,8.358,8.963v0.9h-21.104v-0.9c7.213-0.963,7.274-2.77,7.454-8.963V346.266z M475.947,354.201
		c5.773-0.057,12.506-2.703,12.506-9.379c0-7.037-6.194-9.861-12.506-9.801V354.201z"/>
	<path fill="#002B5C" d="M556.101,365.324l-0.302-21.945c-0.058-5.711-1.623-7.395-8.416-8.598v-0.902h16.416v0.902
		c-4.151,0.541-4.934,2.824-5.415,6.734c-0.84,6.615-0.538,21.105-0.24,34.215l-0.779,0.18
		c-9.622-11.365-20.325-21.889-30.486-32.832v11.066c0,14.91-0.363,17.977,8.358,19.723v0.9h-17.981v-0.9
		c8.118-0.844,7.82-6.377,7.82-20.025v-9.02c0-6.014-0.962-8.357-8.599-10.041v-0.902h9.92L556.101,365.324z"/>
</g>
<g>
	<polyline fill="#F58025" points="562.854,400.604 562.854,398.219 231.327,398.219 231.327,400.604 	"/>
</g>
<g>
	<g>
		<g>
			<polygon fill-rule="evenodd" clip-rule="evenodd" fill="#F58025" points="396.342,145.504 398.285,146.076 409.477,165.45 
				421.965,165.45 423.691,168.359 409.949,168.493 405.232,164.701 400.236,168.697 396.342,165.342 396.342,147.117 			"/>
			<polygon fill-rule="evenodd" clip-rule="evenodd" fill="#F58025" points="421.435,171.181 425.907,182.17 413.448,171.35 
				421.435,171.181 			"/>
			<polygon fill-rule="evenodd" clip-rule="evenodd" fill="#F58025" points="383.261,166.023 366.042,166.023 369.167,169.957 
				380.212,169.957 			"/>
			<path fill-rule="evenodd" clip-rule="evenodd" fill="#F58025" d="M356.566,231.943"/>
			<path fill-rule="evenodd" clip-rule="evenodd" fill="#F58025" d="M354.654,231.752"/>
			<g>
				<path fill="#F58025" d="M412.773,189.024c-1.682,0.95-2.049,3.764-1.245,7.287c-0.268-2.156,0.109-3.797,1.2-4.413
					c2.2-1.242,6.463,2.142,9.522,7.559c3.06,5.418,3.756,10.817,1.555,12.06c-0.772,0.436-1.803,0.292-2.942-0.301
					c1.975,1.43,3.826,1.953,5.128,1.218c2.742-1.548,2.006-8.044-1.644-14.509C420.696,191.46,415.516,187.476,412.773,189.024z
					 M442.396,215.188l-8.643-12.333l2.851-2.053l-3.649-3.307l2.623-2.053l-30.105-25.887l-5.475,3.877l-4.269-4.07l0.04,5.703
					l9.133,9.429l-2.737,7.755l-5.823-6.101v15.967l7.61,6.63l1.65-2.699l26.227,20.852l0.081,4.354l5.161,3.226l-0.655-15.497
					L442.396,215.188z M427.353,216.783c-3.717,2.098-11.632-3.968-16.285-12.214c-4.656-8.245-5.182-17.119-1.466-19.217
					c1.644-0.928,4.078-0.445,6.684,1.091l-0.575-4.011l6.056,5.023l-1.153,2.397c1.863,1.847,3.643,4.134,5.112,6.738
					C430.384,204.836,431.069,214.685,427.353,216.783z"/>
			</g>
			<g>
				<path fill="#F58025" d="M362.613,212.092c-1.985-1.564-0.473-6.792,3.377-11.678c3.852-4.887,8.582-7.582,10.567-6.016
					c0.697,0.549,0.954,1.555,0.839,2.833c0.573-2.369,0.354-4.28-0.82-5.205c-2.473-1.949-8.203,1.198-12.799,7.029
					c-4.594,5.831-6.313,12.137-3.84,14.086c1.517,1.195,4.259,0.468,7.212-1.614C365.258,212.594,363.598,212.868,362.613,212.092z
					"/>
			</g>
			<polygon fill="#F58025" points="396.335,222.892 352.04,248.82 352.04,252.567 396.335,227.16 			"/>
			<polygon fill="#F58025" points="386.158,263.483 386.158,258.934 355.673,270.833 355.673,274.132 			"/>
			<polygon fill-rule="evenodd" clip-rule="evenodd" fill="#F58025" points="354.059,205.059 353.928,219.842 346.067,212.302 
				354.059,205.059 			"/>
			<polyline fill-rule="evenodd" clip-rule="evenodd" fill="#F58025" points="365.208,250.433 365.208,262.878 360.471,264.809 
				360.471,252.725 			"/>
			<polyline fill-rule="evenodd" clip-rule="evenodd" fill="#F58025" points="374.115,245.942 374.115,259.149 369.167,261.216 
				369.167,248.414 			"/>
			<polyline fill-rule="evenodd" clip-rule="evenodd" fill="#F58025" points="383.235,241.356 383.261,255.331 378.164,257.487 
				378.164,243.875 			"/>
			<path fill-rule="evenodd" clip-rule="evenodd" fill="#F58025" d="M356.182,300.869c0,0,0.548-15.142,0.74-17.122
				c0.363-3.745,7.429-6.222,7.187-0.423l-0.317,19.553L356.182,300.869z"/>
			<path fill-rule="evenodd" clip-rule="evenodd" fill="#F58025" d="M371.507,304.885c0,0,0.474-21.697,0.619-24.499
				c0.188-3.632,8.9-7.761,9.707-0.856l0.001,28.062L371.507,304.885z"/>
			<polygon fill-rule="evenodd" clip-rule="evenodd" fill="#F58025" points="422.727,207.368 422.727,205.647 418.852,202.85 
				418.852,196.825 417.777,195.534 417.347,203.495 			"/>
			<g>
				<path fill-rule="evenodd" clip-rule="evenodd" fill="#F58025" d="M437.404,238.819l-7.663-4.734l1.896-2.257l-25.885-20.233
					l-1.882,2.917l-7.528-6.497l-0.013,14.657l41.885,28.183L437.404,238.819z M438.492,254.989l-42.165-27.647l0.018,83.783
					l45.132-11.772L438.492,254.989z"/>
			</g>
			<path fill="#F58025" d="M352.026,288.92"/>
			<path fill="#F58025" d="M387.209,268.274"/>
			<path fill="#F58025" d="M352.542,285.186"/>
			<path fill="#F58025" d="M387.724,264.54"/>
		</g>
		<g>
			<polyline fill-rule="evenodd" clip-rule="evenodd" fill="#F58025" points="353.874,227.377 383.819,207.885 383.819,185.393 
				389.261,190.664 389.261,217.577 385.577,216.997 385.673,210.4 379.841,214.212 379.841,218.698 365.04,228.118 
				364.969,232.436 358.972,236.483 356.873,234.535 362.007,231.064 362.121,225.838 356.723,229.287 			"/>
			<polygon fill-rule="evenodd" clip-rule="evenodd" fill="#F58025" points="379.77,219.926 386.122,215.782 389.261,217.577 
				382.436,221.76 			"/>
		</g>
		<polygon fill-rule="evenodd" clip-rule="evenodd" fill="#F58025" points="396.342,146.768 396.342,130.606 399.424,129.96 
			399.424,136.82 403.51,133.772 404.72,135.949 399.75,139.752 404.264,143.79 402.8,146.26 399.424,143.806 399.424,148.747 		"/>
		<polygon fill-rule="evenodd" clip-rule="evenodd" fill="#F58025" points="394.885,137.445 391.205,134.765 389.251,137.276 
			392.912,140.038 		"/>
	</g>
	<g>
		<polygon fill-rule="evenodd" clip-rule="evenodd" fill="#F58025" points="391.196,169.023 384.591,163.152 349.38,190.738 
			354.763,194.551 350.501,197.915 353.874,200.087 367.507,189.712 366.292,186.322 372.628,181.449 371.855,186.403 
			383.819,177.298 383.819,184.794 396.342,175.634 396.342,165.451 		"/>
	</g>
</g>
<g>
	<path fill="#002B5C" d="M276.645,424.176h8.287v0.744c-2.55,0.664-2.55,1.062-2.763,5.498l-0.186,3.984
		c-0.08,2.098-0.133,4.488-1.673,6.082c-1.567,1.646-3.984,2.205-6.189,2.205c-2.072,0-4.568-0.531-6.135-1.94
		c-1.859-1.674-1.594-4.25-1.594-6.48v-4.197c0-4.807-0.345-4.621-3.506-5.152v-0.744h10.518v0.744
		c-3.665,0.318-3.506,1.541-3.506,5.152v3.719c0,1.541-0.08,3.639,0.77,4.967c1.062,1.621,3.214,2.258,5.073,2.258
		c4.383,0,5.047-3.188,4.94-6.48l-0.186-6.428c-0.08-2.842-1.354-2.684-3.851-3.188V424.176z"/>
	<path fill="#002B5C" d="M299.035,430.152c0-2.736-0.08-4.648-3.453-5.232v-0.744h6.109c3.347,4.357,7.968,8.766,11.793,13.228
		l0.053-0.053l-0.159-8.447c-0.053-3.16-0.85-3.559-3.984-3.984v-0.744h8.075v0.744c-2.337,0.213-2.47,1.328-2.47,5.658v11.818
		l-1.195,0.586c-2.603-3.188-8.924-9.562-13.307-14.291c-0.08,2.975,0.053,5.764,0.16,8.66c0.106,3.266,0.69,3.479,3.825,4.143
		v0.744h-8.712v-0.744c1.939-0.371,3.267-0.266,3.267-3.852V430.152z"/>
	<path fill="#002B5C" d="M335.316,436.342c0,4.807,0.346,4.621,3.506,5.152v0.744h-10.518v-0.744
		c3.161-0.531,3.506-0.346,3.506-5.152v-6.27c0-4.807-0.345-4.621-3.506-5.152v-0.744h10.518v0.744
		c-3.161,0.531-3.506,0.346-3.506,5.152V436.342z"/>
	<path fill="#002B5C" d="M352.049,428.4c-1.301-2.949-1.381-2.789-3.453-3.48v-0.744h9.429v0.744
		c-3.054,0.717-3.214,0.717-1.54,4.648l3.692,8.766l2.311-5.791c2.869-7.197,2.045-7.092-1.354-7.623v-0.744h8.313v0.744
		c-2.47,0.318-3.108,2.02-4.94,6.295l-5.046,11.768l-1.089-0.213L352.049,428.4z"/>
	<path fill="#002B5C" d="M386.233,433.658v3.506c0,2.709,0.027,3.959,3.559,3.959c3.453,0,4.94-1.939,5.684-4.994h0.797
		c0.053,2.072-0.319,4.117-0.956,6.109h-16.096v-0.744c3.161-0.531,3.506-0.346,3.506-5.152v-6.27c0-4.807-0.345-4.621-3.506-5.152
		v-0.744h15.724l-0.504,4.648h-0.824c-0.186-3.479-2.55-3.531-5.445-3.531h-1.939v6.772h2.258c2.284,0,3.479-0.186,4.144-2.602h0.69
		c-0.133,2.256-0.239,4.488-0.106,6.746h-0.744c-0.531-2.604-1.779-2.551-4.09-2.551H386.233z"/>
	<path fill="#002B5C" d="M410.881,429.275c0-3.586-0.186-4.09-3.506-4.355v-0.744h8.26c3.267,0,7.677,0,7.677,4.225
		c0,2.098-1.594,3.639-3.453,4.355c1.966,3.877,4.701,8.021,9.084,9.057l-0.107,0.744c-2.364-0.133-5.1,0.105-7.172-1.328
		c-1.354-0.957-2.895-3.453-3.691-4.939c-1.248-2.391-1.062-2.232-3.586-2.604v2.656c0,3.611-0.159,4.834,4.117,5.152v0.744h-11.129
		v-0.744c3.16-0.531,3.506-0.346,3.506-5.152V429.275z M414.387,432.756c2.471-0.186,4.94-1.248,4.94-4.117
		c0-2.736-2.55-3.478-4.94-3.478V432.756z"/>
	<path fill="#002B5C" d="M449.792,429.541h-0.797c-0.504-2.178-1.142-4.594-3.878-4.594c-1.62,0-2.709,1.195-2.709,2.762
		c0,4.303,8.738,4.01,8.738,9.562c0,3.824-3.665,5.418-7.064,5.418c-1.886,0-3.745-0.504-5.393-1.355l-0.876-5.258l0.823-0.16
		c0.877,2.604,2.815,5.551,5.949,5.551c1.754,0,3.055-1.141,3.055-2.867c0-4.49-8.738-4.117-8.738-9.377
		c0-3.533,3.373-5.498,6.613-5.498c1.594,0,3.161,0.398,4.516,1.195L449.792,429.541z"/>
	<path fill="#002B5C" d="M469.182,436.342c0,4.807,0.345,4.621,3.506,5.152v0.744h-10.519v-0.744
		c3.161-0.531,3.507-0.346,3.507-5.152v-6.27c0-4.807-0.346-4.621-3.507-5.152v-0.744h10.519v0.744
		c-3.161,0.531-3.506,0.346-3.506,5.152V436.342z"/>
	<path fill="#002B5C" d="M483.205,429.303l0.61-5.977h0.558c0.266,0.479,0.638,0.717,1.036,0.797
		c0.425,0.08,0.877,0.053,1.355,0.053h11.235c0.956,0,1.859,0.133,2.391-0.85h0.558l0.611,5.977l-0.744,0.133
		c-1.062-3.771-3.027-4.143-6.693-4.143v11.049c0,4.807,0.346,4.621,3.984,5.152v0.744h-11.475v-0.744
		c3.64-0.531,3.984-0.346,3.984-5.152v-11.049c-3.665,0-5.578,0.371-6.667,4.143L483.205,429.303z"/>
	<path fill="#002B5C" d="M522.116,436.342c0,3.611-0.159,4.834,3.852,5.152v0.744h-11.209v-0.744
		c3.506-0.531,3.852-0.346,3.852-5.152v-1.223l-2.975-6.029c-1.195-2.416-1.541-3.559-4.489-4.17v-0.744h9.217v0.744
		c-1.859,0.479-2.735,0.266-1.195,3.506l2.31,4.861l1.435-2.922c2.258-4.596,1.779-4.834-0.584-5.445v-0.744h7.728v0.744
		c-2.257,0.479-3.347,1.035-4.435,3.027l-3.027,5.605l-0.478,1.01V436.342z"/>
</g>
</svg>
