<?xml version="1.0" encoding="utf-8"?>
<!-- Generator: Adobe Illustrator 17.0.0, SVG Export Plug-In . SVG Version: 6.00 Build 0)  -->
<!DOCTYPE svg PUBLIC "-//W3C//DTD SVG 1.1//EN" "http://www.w3.org/Graphics/SVG/1.1/DTD/svg11.dtd">
<svg version="1.1" id="Layer_1" xmlns="http://www.w3.org/2000/svg" xmlns:xlink="http://www.w3.org/1999/xlink" x="0px" y="0px"
	 width="584px" height="368px" viewBox="0 0 584 368" enable-background="new 0 0 584 368" xml:space="preserve">
<g opacity="0.5">
	<path fill="#C8C8C8" d="M11.303,336.828c0,0,0.479-0.174,1.323-0.417c0.211-0.06,0.445-0.126,0.7-0.198
		c0.264-0.051,0.553-0.085,0.865-0.131c0.624-0.094,1.348-0.206,2.117-0.174c0.39-0.001,0.797-0.002,1.218-0.003
		c0.418,0.047,0.851,0.097,1.296,0.147c0.903,0.073,1.809,0.365,2.771,0.597c0.92,0.346,1.906,0.655,2.811,1.17
		c0.95,0.436,1.807,1.064,2.689,1.649c0.807,0.685,1.649,1.333,2.331,2.125c0.749,0.725,1.316,1.59,1.905,2.376
		c0.489,0.861,1.021,1.65,1.342,2.497c0.172,0.413,0.339,0.815,0.501,1.204c0.115,0.405,0.227,0.796,0.334,1.172
		c0.245,0.735,0.333,1.446,0.414,2.066c0.041,0.31,0.089,0.595,0.113,0.863c0.003,0.271,0.005,0.519,0.007,0.744
		c0.002,0.894-0.035,1.392-0.035,1.392s-0.224-0.469-0.549-1.27c-0.08-0.199-0.17-0.419-0.267-0.658
		c-0.126-0.23-0.239-0.484-0.371-0.749c-0.258-0.533-0.536-1.128-0.908-1.741c-0.177-0.307-0.361-0.627-0.551-0.958
		c-0.214-0.314-0.436-0.639-0.664-0.972c-0.408-0.689-1-1.307-1.502-2.005c-0.603-0.624-1.156-1.32-1.837-1.915
		c-0.631-0.645-1.365-1.191-2.066-1.776c-0.755-0.511-1.483-1.067-2.277-1.495c-0.759-0.493-1.582-0.827-2.349-1.237
		c-0.81-0.288-1.567-0.687-2.343-0.888c-0.384-0.127-0.757-0.25-1.118-0.369c-0.371-0.091-0.73-0.179-1.074-0.263
		c-0.698-0.188-1.331-0.29-1.909-0.39c-0.289-0.053-0.562-0.093-0.818-0.15c-0.263-0.026-0.505-0.05-0.723-0.072
		C11.805,336.913,11.303,336.828,11.303,336.828z"/>
</g>
<g opacity="0.5">
	<polygon fill="#C8C8C8" points="24.295,345.589 10.464,363.214 21.817,343.899 	"/>
</g>
<g opacity="0.5">
	<polygon fill="#C8C8C8" points="20.621,344.145 10.857,348.975 18.933,341.665 	"/>
</g>
<g opacity="0.5">
	<polygon fill="#C8C8C8" points="17.621,341.75 10.718,341.307 17.159,338.786 	"/>
</g>
<g opacity="0.5">
	<polygon fill="#C8C8C8" points="26.974,348.837 22.187,358.623 24.123,347.902 	"/>
</g>
<g opacity="0.5">
	<polygon fill="#C8C8C8" points="30.231,349.744 29.594,356.631 27.255,350.122 	"/>
</g>
<g>
	<g opacity="0.35">
		<path d="M107.185,137.84c1.816-4.632,3.59-11.376,5.321-20.23c1.211-6.451,2.627-10.911,4.25-13.379
			c1.622-2.468,3.525-3.702,5.71-3.702c1.773,0,2.66,1.018,2.66,3.053c0,1.169-0.222,1.997-0.665,2.484
			c-0.443,0.487-1.358,0.828-2.742,1.023c-1.384,0.195-2.628,0.963-3.731,2.306c-1.103,1.343-2.12,4.113-3.05,8.313l-2.369,10.813
			c-0.844,3.746-1.795,7.014-2.855,9.807c-1.06,2.793-1.947,4.86-2.66,6.203c-0.714,1.342-1.179,2.089-1.396,2.24
			c-0.217,0.151-0.758,0.271-1.624,0.357l-3.507,0.422c-0.823,0.043-1.272-0.12-1.348-0.487s-0.184-1.764-0.325-4.188
			s-0.298-4.238-0.471-5.439c-0.173-1.202-0.802-4.476-1.883-9.823c-1.082-5.347-1.807-10.749-2.175-16.205
			c-0.152,0.087-1.056,3.156-2.713,9.206c-1.657,6.051-2.795,10.099-3.412,12.145c-0.618,2.046-1.479,4.232-2.583,6.56
			s-2.523,4.281-4.256,5.861c-1.733,1.581-3.791,2.371-6.174,2.371c-2.079,0-3.752-0.655-5.02-1.965s-1.901-2.527-1.901-3.653
			c0-0.692,0.763-1.748,2.29-3.166c1.526-1.417,2.603-2.127,3.231-2.127c0.692,0,1.125,0.763,1.299,2.29
			c0.174,1.526,0.558,2.668,1.154,3.426s1.306,1.137,2.129,1.137c3.228,0,6.402-6.148,9.522-18.445l0.975-3.929
			c1.842-7.101,3.315-12.242,4.42-15.425l1.04-3.052c0.238-0.671,0.471-1.082,0.699-1.234c0.228-0.151,0.797-0.292,1.708-0.422
			l3.417-0.455c0.499-0.086,0.878-0.13,1.139-0.13c0.477,0,0.792,0.119,0.944,0.357c0.152,0.238,0.228,0.693,0.228,1.364
			c-0.012,4.698,0.703,11.009,2.143,18.932S106.903,134.572,107.185,137.84z"/>
		<path d="M153.962,139.626c-3.464,3.291-5.943,5.434-7.437,6.429c-1.494,0.996-2.922,1.494-4.286,1.494
			c-3.421,0-5.033-3.02-4.838-9.06c-2.165,3.096-4.162,5.38-5.992,6.852c-1.83,1.472-3.718,2.208-5.667,2.208
			c-1.905,0-3.523-0.893-4.854-2.679s-1.997-3.978-1.997-6.576c0-3.248,0.893-6.343,2.679-9.287
			c1.786-2.944,4.075-5.326,6.868-7.144c2.793-1.819,5.261-2.728,7.404-2.728c2.706,0,4.6,1.245,5.683,3.734l6.637-3.669h1.822
			l-2.864,9.515c-1.476,4.785-2.213,8.065-2.213,9.84c0,1.861,0.66,2.792,1.98,2.792c0.844,0,1.774-0.449,2.791-1.348
			c1.017-0.898,2.445-2.268,4.285-4.107V139.626z M130.192,141.412c2.164,0,4.205-1.845,6.121-5.537
			c1.916-3.69,2.874-7.095,2.874-10.212c0-1.212-0.271-2.16-0.812-2.841c-0.542-0.682-1.267-1.023-2.176-1.023
			c-2.165,0-4.216,1.84-6.154,5.52c-1.938,3.681-2.906,7.069-2.906,10.164c0,1.169,0.287,2.116,0.861,2.841
			C128.573,141.05,129.304,141.412,130.192,141.412z"/>
		<path d="M172.634,139.626c-2.728,2.706-5.088,4.703-7.079,5.991c-1.992,1.288-3.886,1.932-5.683,1.932
			c-1.862,0-3.372-0.785-4.53-2.354c-1.158-1.569-1.737-3.631-1.737-6.186c0-2.251,0.555-5.224,1.667-8.917l1.377-4.916l-2.492,0.13
			l1.04-5.098l3.087-0.13l3.049-10.131l8.675-1.781l-3.356,11.295l4.586-0.26l-1.073,5.001l-5.037,0.39l-2.163,7.276
			c-0.752,2.528-1.127,4.54-1.127,6.035c0,1.018,0.255,1.847,0.764,2.486c0.509,0.64,1.165,0.958,1.968,0.958
			c1.105,0,2.2-0.352,3.284-1.055c1.084-0.703,2.677-2.17,4.781-4.4V139.626z"/>
		<path d="M188.578,139.626c-5.065,5.325-8.854,7.988-11.365,7.988c-1.386,0-2.555-0.709-3.507-2.127
			c-0.953-1.418-1.429-3.199-1.429-5.342c0-4.611,1.559-10.998,4.676-19.159l8.248-1.721h0.39l-3.248,10.164
			c-1.342,4.2-2.013,7.198-2.013,8.995c0,0.714,0.157,1.294,0.471,1.737c0.314,0.444,0.709,0.666,1.186,0.666
			c0.844,0,1.693-0.309,2.549-0.925c0.855-0.617,2.203-1.954,4.043-4.01V139.626z M187.928,106.569c0,5.196-1.916,7.793-5.748,7.793
			c-1.862,0-3.453-0.562-4.773-1.688c1.255-1.905,2.229-4.048,2.922-6.43c1.71,1.061,3.085,1.591,4.124,1.591
			C185.623,107.835,186.781,107.413,187.928,106.569z"/>
		<path d="M217.738,139.626c-1.104,0.974-2.176,1.662-3.215,2.062s-1.862,0.601-2.468,0.601c-1.559,0-3.107-0.606-4.644-1.818
			c-3.118,4.72-6.689,7.079-10.716,7.079c-2.512,0-4.546-0.942-6.105-2.825c-1.559-1.884-2.338-4.384-2.338-7.501
			c0-4.936,1.753-9.173,5.261-12.713c3.507-3.54,7.696-5.31,12.567-5.31c1.84,0,3.188,0.201,4.043,0.601
			c0.855,0.401,1.38,0.872,1.575,1.413s0.292,1.223,0.292,2.045c0,4.049-1.104,9.017-3.312,14.905
			c1.104,1.018,2.262,1.526,3.475,1.526c1.45,0,3.312-1.267,5.585-3.799V139.626z M207.022,121.474
			c-0.325-0.13-0.791-0.195-1.396-0.195c-2.814,0-5.017,1.472-6.608,4.416c-1.591,2.944-2.387,6.387-2.387,10.327
			c0,2.187,0.346,3.886,1.039,5.098s1.656,1.818,2.89,1.818c1.537,0,3.204-1.417,5.001-4.254c-2.035-2.554-3.053-5.304-3.053-8.248
			C202.508,126.973,204.013,123.985,207.022,121.474z"/>
		<path d="M249.594,139.626c-5,5.282-9.287,7.923-12.859,7.923c-1.451,0-2.62-0.509-3.507-1.526
			c-0.888-1.018-1.331-2.381-1.331-4.092c0-2.316,0.952-5.855,2.857-10.619c1.017-2.554,1.526-4.178,1.526-4.871
			s-0.271-1.039-0.812-1.039c-0.303,0-0.704,0.151-1.202,0.455c-0.455,0.303-0.985,0.726-1.591,1.266
			c-0.542,0.499-1.148,1.104-1.819,1.819c-0.584,0.606-1.212,1.299-1.883,2.078l-1.818,2.111c-0.801,0.974-1.299,2.002-1.494,3.085
			c-0.325,1.84-0.542,3.529-0.649,5.065c-0.065,1.148-0.098,2.695-0.098,4.644l-7.176,1.689c-0.239-2.923-0.357-5.099-0.357-6.527
			c0-3.485,0.406-6.787,1.218-9.904c0.812-3.117,2.116-6.624,3.913-10.521l7.923-1.526c-1.667,4.481-2.76,8.01-3.28,10.586
			c3.547-3.962,6.365-6.706,8.45-8.232c2.085-1.526,3.938-2.29,5.559-2.29c1.102,0,2.021,0.417,2.756,1.249
			c0.734,0.832,1.102,1.875,1.102,3.129c0,2.076-0.931,5.495-2.792,10.258c-1.277,3.269-1.916,5.392-1.916,6.369
			c0,1.303,0.532,1.954,1.595,1.954c1.584,0,4.146-2.089,7.683-6.267V139.626z"/>
		<path d="M284.243,139.626c-3.464,3.291-5.943,5.434-7.437,6.429c-1.494,0.996-2.922,1.494-4.286,1.494
			c-3.421,0-5.033-3.02-4.838-9.06c-2.165,3.096-4.162,5.38-5.992,6.852c-1.83,1.472-3.718,2.208-5.667,2.208
			c-1.905,0-3.523-0.893-4.854-2.679s-1.997-3.978-1.997-6.576c0-3.248,0.893-6.343,2.679-9.287
			c1.786-2.944,4.075-5.326,6.868-7.144c2.793-1.819,5.261-2.728,7.404-2.728c2.706,0,4.6,1.245,5.683,3.734l6.637-3.669h1.822
			l-2.864,9.515c-1.476,4.785-2.213,8.065-2.213,9.84c0,1.861,0.66,2.792,1.98,2.792c0.844,0,1.774-0.449,2.791-1.348
			c1.017-0.898,2.445-2.268,4.285-4.107V139.626z M260.473,141.412c2.164,0,4.205-1.845,6.121-5.537
			c1.916-3.69,2.874-7.095,2.874-10.212c0-1.212-0.271-2.16-0.812-2.841c-0.542-0.682-1.267-1.023-2.176-1.023
			c-2.165,0-4.216,1.84-6.154,5.52c-1.938,3.681-2.906,7.069-2.906,10.164c0,1.169,0.287,2.116,0.861,2.841
			C258.854,141.05,259.584,141.412,260.473,141.412z"/>
		<path d="M305.707,139.626c-2.945,2.706-5.525,4.703-7.744,5.991c-2.221,1.288-4.336,1.932-6.35,1.932
			c-2.316,0-4.184-0.898-5.601-2.695c-1.418-1.797-2.127-4.21-2.127-7.242c0-4.546,0.985-10.001,2.955-16.366
			c1.97-6.365,4.362-12.231,7.177-17.6l8.248-3.053c0.26-0.086,0.453-0.13,0.584-0.13c0.627,0,1.141,0.46,1.543,1.38
			c0.4,0.92,0.6,2.159,0.6,3.718c0,4.417-1.018,8.692-3.053,12.827c-2.035,4.135-5.217,8.551-9.547,13.249
			c-0.174,2.252-0.26,3.799-0.26,4.644c0,1.883,0.346,3.377,1.039,4.481s1.613,1.656,2.762,1.656c1.168,0,2.412-0.422,3.734-1.267
			c1.318-0.844,3.332-2.598,6.039-5.26V139.626z M293.27,126.929c2.75-3.056,4.979-6.482,6.689-10.276s2.566-7.056,2.566-9.788
			c0-0.802-0.119-1.447-0.357-1.935s-0.541-0.732-0.91-0.732c-0.801,0-1.965,1.995-3.49,5.984
			C296.24,114.171,294.742,119.754,293.27,126.929z"/>
		<path d="M356.267,106.374c0,0.844-1.396,2.922-4.188,6.235h-0.585c-0.434-0.173-0.704-0.812-0.812-1.916
			c-0.238-2.229-1.007-4.053-2.306-5.472c-1.299-1.417-2.857-2.127-4.677-2.127c-1.71,0-3.182,0.622-4.416,1.865
			c-1.233,1.244-1.851,2.73-1.851,4.46c0,1.254,0.392,2.6,1.176,4.038c0.783,1.438,2.812,3.718,6.088,6.84
			c3.275,3.123,5.379,5.608,6.31,7.459s1.396,3.61,1.396,5.277c0,3.854-1.672,7.247-5.017,10.18c-3.345,2.934-7.258,4.4-11.739,4.4
			c-3.702,0-6.755-0.861-9.157-2.582c-2.403-1.721-3.604-3.123-3.604-4.206c0-0.606,0.66-2.013,1.98-4.221
			c1.32-2.208,2.078-3.312,2.273-3.312c0.692,0,1.186,0.201,1.478,0.601s0.492,1.142,0.601,2.224
			c0.325,3.377,1.142,5.705,2.452,6.982c1.31,1.277,3.014,1.916,5.114,1.916c2.294,0,4.297-0.794,6.007-2.385
			c1.71-1.589,2.565-3.433,2.565-5.531c0-1.082-0.332-2.233-0.996-3.456c-0.664-1.222-2.536-3.301-5.617-6.239
			c-3.082-2.937-5.099-5.423-6.051-7.458c-0.953-2.035-1.429-4.016-1.429-5.942c0-3.355,1.267-6.44,3.799-9.255
			c2.533-2.814,5.899-4.222,10.1-4.222c3.183,0,5.829,0.731,7.939,2.192C355.211,104.182,356.267,105.4,356.267,106.374z"/>
		<path d="M378.479,139.626c-2.728,2.706-5.088,4.703-7.079,5.991c-1.992,1.288-3.887,1.932-5.683,1.932
			c-1.862,0-3.372-0.785-4.53-2.354c-1.158-1.569-1.737-3.631-1.737-6.186c0-2.251,0.555-5.224,1.666-8.917l1.378-4.916l-2.492,0.13
			l1.04-5.098l3.088-0.13l3.049-10.131l8.675-1.781l-3.356,11.295l4.586-0.26l-1.072,5.001l-5.038,0.39l-2.163,7.276
			c-0.752,2.528-1.127,4.54-1.127,6.035c0,1.018,0.255,1.847,0.764,2.486c0.51,0.64,1.165,0.958,1.968,0.958
			c1.105,0,2.201-0.352,3.284-1.055c1.084-0.703,2.678-2.17,4.781-4.4V139.626z"/>
		<path d="M413.127,139.626c-2.857,2.706-5.25,4.703-7.177,5.991c-1.927,1.288-3.658,1.932-5.195,1.932
			c-1.711,0-3.025-0.682-3.945-2.046c-0.921-1.364-1.381-3.215-1.381-5.553c-2.381,2.62-4.514,4.552-6.396,5.796
			c-1.884,1.245-3.724,1.867-5.521,1.867c-1.646,0-2.966-0.682-3.962-2.046s-1.493-3.215-1.493-5.553
			c0-4.503,1.515-10.846,4.546-19.029l8.673-1.728c-3.566,10.377-5.354,17.038-5.36,19.98c0,2.077,0.779,3.115,2.338,3.115
			c1.125,0,2.521-0.915,4.188-2.744c1.667-1.829,2.706-3.426,3.117-4.79l4.254-13.833l8.84-1.788
			c-2.041,6.516-3.44,11.095-4.2,13.735c-0.76,2.641-1.14,4.492-1.14,5.554c0,2.036,0.693,3.054,2.08,3.054
			c1.126,0,2.794-1.028,5.005-3.085l2.729-2.565V139.626z"/>
		<path d="M447.775,139.626c-3.117,3.096-5.493,5.19-7.128,6.283s-3.08,1.64-4.335,1.64c-1.537,0-2.755-0.747-3.653-2.241
			s-1.358-3.68-1.38-6.56c-1.775,2.879-3.708,5.066-5.797,6.56s-3.978,2.241-5.666,2.241c-1.841,0-3.464-0.872-4.871-2.614
			c-1.407-1.742-2.11-3.783-2.11-6.121c0-4.827,1.758-9.304,5.276-13.428c3.518-4.124,7.301-6.186,11.35-6.186
			c1.125,0,2.008,0.163,2.646,0.487c0.638,0.325,1.336,0.876,2.094,1.656l4.645-19.419c3.792-0.887,6.349-1.332,7.671-1.332
			c0.434,0,0.649,0.174,0.649,0.521c0,0.239-0.54,2.48-1.622,6.724c-4.325,16.973-6.488,27.213-6.488,30.718
			c0,0.822,0.173,1.482,0.519,1.98c0.346,0.498,0.799,0.746,1.361,0.746c1.383,0,3.663-1.796,6.84-5.39V139.626z M424.298,141.347
			c2.121,0,4.102-1.796,5.942-5.39c1.84-3.594,2.76-6.96,2.76-10.099c0-1.277-0.287-2.294-0.86-3.053
			c-0.574-0.757-1.326-1.136-2.257-1.136c-2.014,0-3.962,1.878-5.845,5.634c-1.884,3.756-2.825,7.15-2.825,10.18
			c0,1.191,0.275,2.133,0.828,2.825C422.593,141.001,423.345,141.347,424.298,141.347z"/>
		<path d="M472.032,139.626c-2.749,2.706-5.218,4.703-7.403,5.991c-2.188,1.288-4.601,1.932-7.242,1.932
			c-2.944,0-5.32-0.942-7.127-2.825c-1.809-1.884-2.712-4.362-2.712-7.437c0-4.589,1.591-8.74,4.773-12.453
			s6.711-5.569,10.586-5.569c2.014,0,3.626,0.52,4.839,1.559c1.212,1.039,1.818,2.403,1.818,4.091
			c0,4.481-4.763,8.118-14.288,10.911c0.865,4.221,3.128,6.332,6.787,6.332c1.429,0,2.792-0.384,4.092-1.153
			c1.299-0.768,3.258-2.473,5.877-5.114V139.626z M455.017,133.619c5.542-1.559,8.313-4.438,8.313-8.638
			c0-2.078-0.759-3.117-2.273-3.117c-1.429,0-2.793,1.088-4.092,3.263C455.666,127.303,455.017,130.133,455.017,133.619z"/>
		<path d="M503.921,139.626c-5.001,5.282-9.287,7.923-12.859,7.923c-1.45,0-2.619-0.509-3.507-1.526
			c-0.888-1.018-1.331-2.381-1.331-4.092c0-2.316,0.952-5.855,2.857-10.619c1.018-2.554,1.526-4.178,1.526-4.871
			s-0.271-1.039-0.812-1.039c-0.303,0-0.703,0.151-1.201,0.455c-0.454,0.303-0.985,0.726-1.591,1.266
			c-0.542,0.499-1.147,1.104-1.818,1.819c-0.585,0.606-1.213,1.299-1.884,2.078l-1.818,2.111c-0.801,0.974-1.299,2.002-1.494,3.085
			c-0.324,1.84-0.541,3.529-0.649,5.065c-0.064,1.148-0.097,2.695-0.097,4.644l-7.177,1.689c-0.238-2.923-0.357-5.099-0.357-6.527
			c0-3.485,0.406-6.787,1.218-9.904c0.812-3.117,2.116-6.624,3.913-10.521l7.923-1.526c-1.667,4.481-2.76,8.01-3.279,10.586
			c3.548-3.962,6.364-6.706,8.45-8.232c2.085-1.526,3.938-2.29,5.56-2.29c1.102,0,2.021,0.417,2.755,1.249
			c0.735,0.832,1.103,1.875,1.103,3.129c0,2.076-0.931,5.495-2.792,10.258c-1.276,3.269-1.915,5.392-1.915,6.369
			c0,1.303,0.531,1.954,1.595,1.954c1.584,0,4.146-2.089,7.684-6.267V139.626z"/>
		<path d="M522.593,139.626c-2.728,2.706-5.088,4.703-7.079,5.991c-1.992,1.288-3.887,1.932-5.683,1.932
			c-1.862,0-3.372-0.785-4.53-2.354c-1.158-1.569-1.737-3.631-1.737-6.186c0-2.251,0.555-5.224,1.666-8.917l1.378-4.916l-2.492,0.13
			l1.04-5.098l3.088-0.13l3.049-10.131l8.675-1.781l-3.356,11.295l4.586-0.26l-1.072,5.001l-5.038,0.39l-2.163,7.276
			c-0.752,2.528-1.127,4.54-1.127,6.035c0,1.018,0.255,1.847,0.764,2.486c0.51,0.64,1.165,0.958,1.968,0.958
			c1.105,0,2.201-0.352,3.284-1.055c1.084-0.703,2.678-2.17,4.781-4.4V139.626z"/>
	</g>
	<g>
		<g>
			<path fill="#0D2E54" d="M105.185,135.84c1.816-4.632,3.59-11.376,5.321-20.23c1.211-6.451,2.627-10.911,4.25-13.379
				c1.622-2.468,3.525-3.702,5.71-3.702c1.773,0,2.66,1.018,2.66,3.053c0,1.169-0.222,1.997-0.665,2.484
				c-0.443,0.487-1.358,0.828-2.742,1.023c-1.384,0.195-2.628,0.963-3.731,2.306c-1.103,1.343-2.12,4.113-3.05,8.313l-2.369,10.813
				c-0.844,3.746-1.795,7.014-2.855,9.807c-1.06,2.793-1.947,4.86-2.66,6.203c-0.714,1.342-1.179,2.089-1.396,2.24
				c-0.217,0.151-0.758,0.271-1.624,0.357l-3.507,0.422c-0.823,0.043-1.272-0.12-1.348-0.487s-0.184-1.764-0.325-4.188
				s-0.298-4.238-0.471-5.439c-0.173-1.202-0.802-4.476-1.883-9.823c-1.082-5.347-1.807-10.749-2.175-16.205
				c-0.152,0.087-1.056,3.156-2.713,9.206c-1.657,6.051-2.795,10.099-3.412,12.145c-0.618,2.046-1.479,4.232-2.583,6.56
				s-2.523,4.281-4.256,5.861c-1.733,1.581-3.791,2.371-6.174,2.371c-2.079,0-3.752-0.655-5.02-1.965s-1.901-2.527-1.901-3.653
				c0-0.692,0.763-1.748,2.29-3.166c1.526-1.417,2.603-2.127,3.231-2.127c0.692,0,1.125,0.763,1.299,2.29
				c0.174,1.526,0.558,2.668,1.154,3.426s1.306,1.137,2.129,1.137c3.228,0,6.402-6.148,9.522-18.445l0.975-3.929
				c1.842-7.101,3.315-12.242,4.42-15.425l1.04-3.052c0.238-0.671,0.471-1.082,0.699-1.234c0.228-0.151,0.797-0.292,1.708-0.422
				l3.417-0.455c0.499-0.086,0.878-0.13,1.139-0.13c0.477,0,0.792,0.119,0.944,0.357c0.152,0.238,0.228,0.693,0.228,1.364
				c-0.012,4.698,0.703,11.009,2.143,18.932S104.903,132.572,105.185,135.84z"/>
			<path fill="#0D2E54" d="M151.962,137.626c-3.464,3.291-5.943,5.434-7.437,6.429c-1.494,0.996-2.922,1.494-4.286,1.494
				c-3.421,0-5.033-3.02-4.838-9.06c-2.165,3.096-4.162,5.38-5.992,6.852c-1.83,1.472-3.718,2.208-5.667,2.208
				c-1.905,0-3.523-0.893-4.854-2.679s-1.997-3.978-1.997-6.576c0-3.248,0.893-6.343,2.679-9.287
				c1.786-2.944,4.075-5.326,6.868-7.144c2.793-1.819,5.261-2.728,7.404-2.728c2.706,0,4.6,1.245,5.683,3.734l6.637-3.669h1.822
				l-2.864,9.515c-1.476,4.785-2.213,8.065-2.213,9.84c0,1.861,0.66,2.792,1.98,2.792c0.844,0,1.774-0.449,2.791-1.348
				c1.017-0.898,2.445-2.268,4.285-4.107V137.626z M128.192,139.412c2.164,0,4.205-1.845,6.121-5.537
				c1.916-3.69,2.874-7.095,2.874-10.212c0-1.212-0.271-2.16-0.812-2.841c-0.542-0.682-1.267-1.023-2.176-1.023
				c-2.165,0-4.216,1.84-6.154,5.52c-1.938,3.681-2.906,7.069-2.906,10.164c0,1.169,0.287,2.116,0.861,2.841
				C126.573,139.05,127.304,139.412,128.192,139.412z"/>
			<path fill="#0D2E54" d="M170.634,137.626c-2.728,2.706-5.088,4.703-7.079,5.991c-1.992,1.288-3.886,1.932-5.683,1.932
				c-1.862,0-3.372-0.785-4.53-2.354c-1.158-1.569-1.737-3.631-1.737-6.186c0-2.251,0.555-5.224,1.667-8.917l1.377-4.916
				l-2.492,0.13l1.04-5.098l3.087-0.13l3.049-10.131l8.675-1.781l-3.356,11.295l4.586-0.26l-1.073,5.001l-5.037,0.39l-2.163,7.276
				c-0.752,2.528-1.127,4.54-1.127,6.035c0,1.018,0.255,1.847,0.764,2.486c0.509,0.64,1.165,0.958,1.968,0.958
				c1.105,0,2.2-0.352,3.284-1.055c1.084-0.703,2.677-2.17,4.781-4.4V137.626z"/>
			<path fill="#0D2E54" d="M186.578,137.626c-5.065,5.325-8.854,7.988-11.365,7.988c-1.386,0-2.555-0.709-3.507-2.127
				c-0.953-1.418-1.429-3.199-1.429-5.342c0-4.611,1.559-10.998,4.676-19.159l8.248-1.721h0.39l-3.248,10.164
				c-1.342,4.2-2.013,7.198-2.013,8.995c0,0.714,0.157,1.294,0.471,1.737c0.314,0.444,0.709,0.666,1.186,0.666
				c0.844,0,1.693-0.309,2.549-0.925c0.855-0.617,2.203-1.954,4.043-4.01V137.626z M185.928,104.569
				c0,5.196-1.916,7.793-5.748,7.793c-1.862,0-3.453-0.562-4.773-1.688c1.255-1.905,2.229-4.048,2.922-6.43
				c1.71,1.061,3.085,1.591,4.124,1.591C183.623,105.835,184.781,105.413,185.928,104.569z"/>
			<path fill="#0D2E54" d="M215.738,137.626c-1.104,0.974-2.176,1.662-3.215,2.062s-1.862,0.601-2.468,0.601
				c-1.559,0-3.107-0.606-4.644-1.818c-3.118,4.72-6.689,7.079-10.716,7.079c-2.512,0-4.546-0.942-6.105-2.825
				c-1.559-1.884-2.338-4.384-2.338-7.501c0-4.936,1.753-9.173,5.261-12.713c3.507-3.54,7.696-5.31,12.567-5.31
				c1.84,0,3.188,0.201,4.043,0.601c0.855,0.401,1.38,0.872,1.575,1.413s0.292,1.223,0.292,2.045c0,4.049-1.104,9.017-3.312,14.905
				c1.104,1.018,2.262,1.526,3.475,1.526c1.45,0,3.312-1.267,5.585-3.799V137.626z M205.022,119.474
				c-0.325-0.13-0.791-0.195-1.396-0.195c-2.814,0-5.017,1.472-6.608,4.416c-1.591,2.944-2.387,6.387-2.387,10.327
				c0,2.187,0.346,3.886,1.039,5.098s1.656,1.818,2.89,1.818c1.537,0,3.204-1.417,5.001-4.254c-2.035-2.554-3.053-5.304-3.053-8.248
				C200.508,124.973,202.013,121.985,205.022,119.474z"/>
			<path fill="#0D2E54" d="M247.594,137.626c-5,5.282-9.287,7.923-12.859,7.923c-1.451,0-2.62-0.509-3.507-1.526
				c-0.888-1.018-1.331-2.381-1.331-4.092c0-2.316,0.952-5.855,2.857-10.619c1.017-2.554,1.526-4.178,1.526-4.871
				s-0.271-1.039-0.812-1.039c-0.303,0-0.704,0.151-1.202,0.455c-0.455,0.303-0.985,0.726-1.591,1.266
				c-0.542,0.499-1.148,1.104-1.819,1.819c-0.584,0.606-1.212,1.299-1.883,2.078l-1.818,2.111c-0.801,0.974-1.299,2.002-1.494,3.085
				c-0.325,1.84-0.542,3.529-0.649,5.065c-0.065,1.148-0.098,2.695-0.098,4.644l-7.176,1.689c-0.239-2.923-0.357-5.099-0.357-6.527
				c0-3.485,0.406-6.787,1.218-9.904c0.812-3.117,2.116-6.624,3.913-10.521l7.923-1.526c-1.667,4.481-2.76,8.01-3.28,10.586
				c3.547-3.962,6.365-6.706,8.45-8.232c2.085-1.526,3.938-2.29,5.559-2.29c1.102,0,2.021,0.417,2.756,1.249
				c0.734,0.832,1.102,1.875,1.102,3.129c0,2.076-0.931,5.495-2.792,10.258c-1.277,3.269-1.916,5.392-1.916,6.369
				c0,1.303,0.532,1.954,1.595,1.954c1.584,0,4.146-2.089,7.683-6.267V137.626z"/>
			<path fill="#0D2E54" d="M282.243,137.626c-3.464,3.291-5.943,5.434-7.437,6.429c-1.494,0.996-2.922,1.494-4.286,1.494
				c-3.421,0-5.033-3.02-4.838-9.06c-2.165,3.096-4.162,5.38-5.992,6.852c-1.83,1.472-3.718,2.208-5.667,2.208
				c-1.905,0-3.523-0.893-4.854-2.679s-1.997-3.978-1.997-6.576c0-3.248,0.893-6.343,2.679-9.287
				c1.786-2.944,4.075-5.326,6.868-7.144c2.793-1.819,5.261-2.728,7.404-2.728c2.706,0,4.6,1.245,5.683,3.734l6.637-3.669h1.822
				l-2.864,9.515c-1.476,4.785-2.213,8.065-2.213,9.84c0,1.861,0.66,2.792,1.98,2.792c0.844,0,1.774-0.449,2.791-1.348
				c1.017-0.898,2.445-2.268,4.285-4.107V137.626z M258.473,139.412c2.164,0,4.205-1.845,6.121-5.537
				c1.916-3.69,2.874-7.095,2.874-10.212c0-1.212-0.271-2.16-0.812-2.841c-0.542-0.682-1.267-1.023-2.176-1.023
				c-2.165,0-4.216,1.84-6.154,5.52c-1.938,3.681-2.906,7.069-2.906,10.164c0,1.169,0.287,2.116,0.861,2.841
				C256.854,139.05,257.584,139.412,258.473,139.412z"/>
			<path fill="#0D2E54" d="M303.707,137.626c-2.945,2.706-5.525,4.703-7.744,5.991c-2.221,1.288-4.336,1.932-6.35,1.932
				c-2.316,0-4.184-0.898-5.601-2.695c-1.418-1.797-2.127-4.21-2.127-7.242c0-4.546,0.985-10.001,2.955-16.366
				c1.97-6.365,4.362-12.231,7.177-17.6l8.248-3.053c0.26-0.086,0.453-0.13,0.584-0.13c0.627,0,1.141,0.46,1.543,1.38
				c0.4,0.92,0.6,2.159,0.6,3.718c0,4.417-1.018,8.692-3.053,12.827c-2.035,4.135-5.217,8.551-9.547,13.249
				c-0.174,2.252-0.26,3.799-0.26,4.644c0,1.883,0.346,3.377,1.039,4.481s1.613,1.656,2.762,1.656c1.168,0,2.412-0.422,3.734-1.267
				c1.318-0.844,3.332-2.598,6.039-5.26V137.626z M291.27,124.929c2.75-3.056,4.979-6.482,6.689-10.276s2.566-7.056,2.566-9.788
				c0-0.802-0.119-1.447-0.357-1.935s-0.541-0.732-0.91-0.732c-0.801,0-1.965,1.995-3.49,5.984
				C294.24,112.171,292.742,117.754,291.27,124.929z"/>
			<path fill="#0D2E54" d="M354.267,104.374c0,0.844-1.396,2.922-4.188,6.235h-0.585c-0.434-0.173-0.704-0.812-0.812-1.916
				c-0.238-2.229-1.007-4.053-2.306-5.472c-1.299-1.417-2.857-2.127-4.677-2.127c-1.71,0-3.182,0.622-4.416,1.865
				c-1.233,1.244-1.851,2.73-1.851,4.46c0,1.254,0.392,2.6,1.176,4.038c0.783,1.438,2.812,3.718,6.088,6.84
				c3.275,3.123,5.379,5.608,6.31,7.459s1.396,3.61,1.396,5.277c0,3.854-1.672,7.247-5.017,10.18c-3.345,2.934-7.258,4.4-11.739,4.4
				c-3.702,0-6.755-0.861-9.157-2.582c-2.403-1.721-3.604-3.123-3.604-4.206c0-0.606,0.66-2.013,1.98-4.221
				c1.32-2.208,2.078-3.312,2.273-3.312c0.692,0,1.186,0.201,1.478,0.601s0.492,1.142,0.601,2.224
				c0.325,3.377,1.142,5.705,2.452,6.982c1.31,1.277,3.014,1.916,5.114,1.916c2.294,0,4.297-0.794,6.007-2.385
				c1.71-1.589,2.565-3.433,2.565-5.531c0-1.082-0.332-2.233-0.996-3.456c-0.664-1.222-2.536-3.301-5.617-6.239
				c-3.082-2.937-5.099-5.423-6.051-7.458c-0.953-2.035-1.429-4.016-1.429-5.942c0-3.355,1.267-6.44,3.799-9.255
				c2.533-2.814,5.899-4.222,10.1-4.222c3.183,0,5.829,0.731,7.939,2.192C353.211,102.182,354.267,103.4,354.267,104.374z"/>
			<path fill="#0D2E54" d="M376.479,137.626c-2.728,2.706-5.088,4.703-7.079,5.991c-1.992,1.288-3.887,1.932-5.683,1.932
				c-1.862,0-3.372-0.785-4.53-2.354c-1.158-1.569-1.737-3.631-1.737-6.186c0-2.251,0.555-5.224,1.666-8.917l1.378-4.916
				l-2.492,0.13l1.04-5.098l3.088-0.13l3.049-10.131l8.675-1.781l-3.356,11.295l4.586-0.26l-1.072,5.001l-5.038,0.39l-2.163,7.276
				c-0.752,2.528-1.127,4.54-1.127,6.035c0,1.018,0.255,1.847,0.764,2.486c0.51,0.64,1.165,0.958,1.968,0.958
				c1.105,0,2.201-0.352,3.284-1.055c1.084-0.703,2.678-2.17,4.781-4.4V137.626z"/>
			<path fill="#0D2E54" d="M411.127,137.626c-2.857,2.706-5.25,4.703-7.177,5.991c-1.927,1.288-3.658,1.932-5.195,1.932
				c-1.711,0-3.025-0.682-3.945-2.046c-0.921-1.364-1.381-3.215-1.381-5.553c-2.381,2.62-4.514,4.552-6.396,5.796
				c-1.884,1.245-3.724,1.867-5.521,1.867c-1.646,0-2.966-0.682-3.962-2.046s-1.493-3.215-1.493-5.553
				c0-4.503,1.515-10.846,4.546-19.029l8.673-1.728c-3.566,10.377-5.354,17.038-5.36,19.98c0,2.077,0.779,3.115,2.338,3.115
				c1.125,0,2.521-0.915,4.188-2.744c1.667-1.829,2.706-3.426,3.117-4.79l4.254-13.833l8.84-1.788
				c-2.041,6.516-3.44,11.095-4.2,13.735c-0.76,2.641-1.14,4.492-1.14,5.554c0,2.036,0.693,3.054,2.08,3.054
				c1.126,0,2.794-1.028,5.005-3.085l2.729-2.565V137.626z"/>
			<path fill="#0D2E54" d="M445.775,137.626c-3.117,3.096-5.493,5.19-7.128,6.283s-3.08,1.64-4.335,1.64
				c-1.537,0-2.755-0.747-3.653-2.241s-1.358-3.68-1.38-6.56c-1.775,2.879-3.708,5.066-5.797,6.56s-3.978,2.241-5.666,2.241
				c-1.841,0-3.464-0.872-4.871-2.614c-1.407-1.742-2.11-3.783-2.11-6.121c0-4.827,1.758-9.304,5.276-13.428
				c3.518-4.124,7.301-6.186,11.35-6.186c1.125,0,2.008,0.163,2.646,0.487c0.638,0.325,1.336,0.876,2.094,1.656l4.645-19.419
				c3.792-0.887,6.349-1.332,7.671-1.332c0.434,0,0.649,0.174,0.649,0.521c0,0.239-0.54,2.48-1.622,6.724
				c-4.325,16.973-6.488,27.213-6.488,30.718c0,0.822,0.173,1.482,0.519,1.98c0.346,0.498,0.799,0.746,1.361,0.746
				c1.383,0,3.663-1.796,6.84-5.39V137.626z M422.298,139.347c2.121,0,4.102-1.796,5.942-5.39c1.84-3.594,2.76-6.96,2.76-10.099
				c0-1.277-0.287-2.294-0.86-3.053c-0.574-0.757-1.326-1.136-2.257-1.136c-2.014,0-3.962,1.878-5.845,5.634
				c-1.884,3.756-2.825,7.15-2.825,10.18c0,1.191,0.275,2.133,0.828,2.825C420.593,139.001,421.345,139.347,422.298,139.347z"/>
			<path fill="#0D2E54" d="M470.032,137.626c-2.749,2.706-5.218,4.703-7.403,5.991c-2.188,1.288-4.601,1.932-7.242,1.932
				c-2.944,0-5.32-0.942-7.127-2.825c-1.809-1.884-2.712-4.362-2.712-7.437c0-4.589,1.591-8.74,4.773-12.453
				s6.711-5.569,10.586-5.569c2.014,0,3.626,0.52,4.839,1.559c1.212,1.039,1.818,2.403,1.818,4.091
				c0,4.481-4.763,8.118-14.288,10.911c0.865,4.221,3.128,6.332,6.787,6.332c1.429,0,2.792-0.384,4.092-1.153
				c1.299-0.768,3.258-2.473,5.877-5.114V137.626z M453.017,131.619c5.542-1.559,8.313-4.438,8.313-8.638
				c0-2.078-0.759-3.117-2.273-3.117c-1.429,0-2.793,1.088-4.092,3.263C453.666,125.303,453.017,128.133,453.017,131.619z"/>
			<path fill="#0D2E54" d="M501.921,137.626c-5.001,5.282-9.287,7.923-12.859,7.923c-1.45,0-2.619-0.509-3.507-1.526
				c-0.888-1.018-1.331-2.381-1.331-4.092c0-2.316,0.952-5.855,2.857-10.619c1.018-2.554,1.526-4.178,1.526-4.871
				s-0.271-1.039-0.812-1.039c-0.303,0-0.703,0.151-1.201,0.455c-0.454,0.303-0.985,0.726-1.591,1.266
				c-0.542,0.499-1.147,1.104-1.818,1.819c-0.585,0.606-1.213,1.299-1.884,2.078l-1.818,2.111c-0.801,0.974-1.299,2.002-1.494,3.085
				c-0.324,1.84-0.541,3.529-0.649,5.065c-0.064,1.148-0.097,2.695-0.097,4.644l-7.177,1.689c-0.238-2.923-0.357-5.099-0.357-6.527
				c0-3.485,0.406-6.787,1.218-9.904c0.812-3.117,2.116-6.624,3.913-10.521l7.923-1.526c-1.667,4.481-2.76,8.01-3.279,10.586
				c3.548-3.962,6.364-6.706,8.45-8.232c2.085-1.526,3.938-2.29,5.56-2.29c1.102,0,2.021,0.417,2.755,1.249
				c0.735,0.832,1.103,1.875,1.103,3.129c0,2.076-0.931,5.495-2.792,10.258c-1.276,3.269-1.915,5.392-1.915,6.369
				c0,1.303,0.531,1.954,1.595,1.954c1.584,0,4.146-2.089,7.684-6.267V137.626z"/>
			<path fill="#0D2E54" d="M520.593,137.626c-2.728,2.706-5.088,4.703-7.079,5.991c-1.992,1.288-3.887,1.932-5.683,1.932
				c-1.862,0-3.372-0.785-4.53-2.354c-1.158-1.569-1.737-3.631-1.737-6.186c0-2.251,0.555-5.224,1.666-8.917l1.378-4.916
				l-2.492,0.13l1.04-5.098l3.088-0.13l3.049-10.131l8.675-1.781l-3.356,11.295l4.586-0.26l-1.072,5.001l-5.038,0.39l-2.163,7.276
				c-0.752,2.528-1.127,4.54-1.127,6.035c0,1.018,0.255,1.847,0.764,2.486c0.51,0.64,1.165,0.958,1.968,0.958
				c1.105,0,2.201-0.352,3.284-1.055c1.084-0.703,2.678-2.17,4.781-4.4V137.626z"/>
		</g>
	</g>
</g>
<g>
	<rect x="4.76" y="157.261" fill="none" width="573.447" height="40.078"/>
	<path fill="#0D2E54" stroke="#0D2E54" stroke-miterlimit="10" d="M93.626,194.856v0.478v0.531H78.651v-0.531v-37.49v-0.584h14.763
		v0.584v0.425H79.767v20.073H90.44v0.531v0.478H79.767v15.506H93.626z"/>
	<path fill="#0D2E54" stroke="#0D2E54" stroke-miterlimit="10" d="M106.795,160.074v35.791h-0.531h-0.584v-38.075v-0.053v-0.478
		h0.903l9.824,19.223l9.824-19.223h0.85v0.478v0.053v38.075h-0.558h-0.558v-35.844l-9.187,18.32h-0.744L106.795,160.074z
		 M106.424,157.26h-0.053h-0.053h-0.053h-0.053h-0.053h-0.053h-0.053H106.424z M126.337,157.26h0.053h0.053h0.053h0.053h0.053h0.053
		h0.053H126.337z"/>
	<path fill="#0D2E54" stroke="#0D2E54" stroke-miterlimit="10" d="M152.622,160.711c0.672,1.062,1.195,2.257,1.566,3.584
		c0.372,1.328,0.558,2.665,0.558,4.009c0,1.381-0.186,2.735-0.558,4.062c-0.372,1.328-0.894,2.505-1.566,3.531
		c-0.743,1.133-1.699,1.991-2.867,2.576c-1.168,0.584-2.814,0.876-4.939,0.876h-4.991v16.515h-0.584h-0.531v-37.968v-0.637h0.637
		h5.469c1.912,0,3.513,0.301,4.806,0.902C150.914,158.765,151.914,159.614,152.622,160.711z M151.667,175.307
		c0.602-0.958,1.079-2.05,1.434-3.275c0.354-1.225,0.531-2.476,0.531-3.754c0-1.242-0.178-2.476-0.531-3.701
		c-0.354-1.225-0.832-2.315-1.434-3.275c-0.603-0.922-1.47-1.641-2.602-2.156c-1.133-0.514-2.549-0.772-4.249-0.772h-4.991v19.86
		h4.991c2.053,0,3.558-0.257,4.514-0.771C150.286,176.949,151.064,176.229,151.667,175.307z"/>
	<path fill="#0D2E54" stroke="#0D2E54" stroke-miterlimit="10" d="M168.128,195.865v-0.531V157.26h0.558h0.558v37.597h14.231v0.478
		v0.531H168.128z"/>
	<path fill="#0D2E54" stroke="#0D2E54" stroke-miterlimit="10" d="M212.681,187.528c0,0.105,0,0.39,0,0.85s-0.071,1.018-0.212,1.672
		c-0.142,0.656-0.363,1.354-0.664,2.098c-0.301,0.744-0.753,1.435-1.354,2.071c-0.708,0.709-1.708,1.248-3,1.62
		c-1.293,0.371-2.541,0.558-3.744,0.558c-1.204,0-2.443-0.187-3.717-0.558c-1.274-0.372-2.249-0.911-2.92-1.62
		c-0.603-0.637-1.054-1.345-1.354-2.124c-0.301-0.778-0.504-1.514-0.61-2.204c-0.106-0.69-0.16-1.282-0.16-1.778s0-0.797,0-0.903
		v-21.771c0-1.416,0.204-2.682,0.611-3.797c0.407-1.115,1.053-2.062,1.938-2.841c0.354-0.318,0.787-0.601,1.301-0.85
		c0.513-0.247,1.053-0.451,1.62-0.61c0.566-0.16,1.133-0.283,1.699-0.372c0.566-0.088,1.097-0.132,1.593-0.132
		c0.459,0,0.982,0.036,1.566,0.106c0.584,0.071,1.168,0.186,1.752,0.345s1.132,0.354,1.646,0.584
		c0.513,0.231,0.947,0.504,1.301,0.823c1.805,1.593,2.708,3.842,2.708,6.744V187.528z M211.565,165.438
		c0-1.239-0.159-2.301-0.478-3.187c-0.319-0.884-0.762-1.628-1.328-2.23c-0.319-0.354-0.735-0.664-1.248-0.929
		c-0.514-0.266-1.054-0.486-1.62-0.664c-0.567-0.177-1.133-0.3-1.699-0.372c-0.567-0.071-1.062-0.106-1.487-0.106
		c-0.815,0-1.673,0.098-2.576,0.292c-0.903,0.195-1.726,0.566-2.469,1.115c-0.743,0.549-1.354,1.311-1.832,2.284
		c-0.478,0.974-0.717,2.239-0.717,3.797v21.825c-0.036,0.885,0,1.646,0.106,2.283c0.106,0.637,0.283,1.31,0.531,2.018
		c0.247,0.709,0.637,1.346,1.168,1.912c0.566,0.603,1.416,1.054,2.549,1.354c1.132,0.302,2.212,0.452,3.239,0.452
		c0.531,0,1.08-0.035,1.646-0.106c0.566-0.07,1.124-0.186,1.673-0.346c0.548-0.159,1.053-0.354,1.513-0.584
		c0.46-0.229,0.832-0.504,1.115-0.823c0.531-0.565,0.92-1.186,1.168-1.858c0.247-0.672,0.425-1.301,0.531-1.885
		c0.106-0.584,0.16-1.283,0.16-2.098L211.565,165.438z"/>
	<path fill="#0D2E54" stroke="#0D2E54" stroke-miterlimit="10" d="M237.373,157.312h1.221l-7.435,18.798v19.701h-0.558h-0.557
		v-19.701l-7.435-18.798h1.221l6.771,17.736L237.373,157.312z"/>
	<path fill="#0D2E54" stroke="#0D2E54" stroke-miterlimit="10" d="M250.648,160.074v35.791h-0.531h-0.584v-38.075v-0.053v-0.478
		h0.903l9.824,19.223l9.824-19.223h0.85v0.478v0.053v38.075h-0.558h-0.558v-35.844l-9.187,18.32h-0.744L250.648,160.074z
		 M250.276,157.26h-0.053h-0.053h-0.053h-0.053h-0.053h-0.053h-0.053H250.276z M270.189,157.26h0.053h0.053h0.053h0.053h0.053h0.053
		h0.053H270.189z"/>
	<path fill="#0D2E54" stroke="#0D2E54" stroke-miterlimit="10" d="M298.334,194.856v0.478v0.531h-14.975v-0.531v-37.49v-0.584
		h14.762v0.584v0.425h-13.647v20.073h10.674v0.531v0.478h-10.674v15.506H298.334z"/>
	<path fill="#0D2E54" stroke="#0D2E54" stroke-miterlimit="10" d="M311.874,195.865h-0.558h-0.558v-38.075v-0.531h0.903
		l14.707,33.826c0.212,0.496,0.363,0.885,0.452,1.168c0.089,0.284,0.169,0.514,0.24,0.69V157.26h0.531h0.584v38.605h-0.959
		l-14.545-33.561c-0.071-0.177-0.222-0.539-0.453-1.088c-0.23-0.548-0.381-0.982-0.452-1.301L311.874,195.865z M311.503,157.26
		h-0.054h-0.053h-0.054h-0.053h-0.053h-0.054h-0.053H311.503z M327.805,195.865h-0.106h-0.105h-0.106h-0.053H327.805z"/>
	<path fill="#0D2E54" stroke="#0D2E54" stroke-miterlimit="10" d="M346.604,158.322h-8.815v-0.478v-0.531h18.586v0.531v0.531
		l0.053-0.053h-8.708v37.543h-0.584h-0.531V158.322z"/>
	<path fill="#0D2E54" stroke="#0D2E54" stroke-miterlimit="10" d="M407.882,177.173l-6.16,18.639h-0.956l-4.779-38.499h1.115
		l4.461,35.366l5.895-17.896h0.85l5.895,17.896l4.354-35.366h1.168l-4.727,38.499h-0.955L407.882,177.173z M401.085,195.812h0.053
		h0.053h0.054H401.085z M401.35,195.812h0.054h0.053h0.054H401.35z M408.094,174.783h-0.053h-0.053h-0.054h-0.053h-0.054h-0.053
		h-0.053h-0.054H408.094z M414.413,195.812h-0.053h-0.054h-0.053H414.413z M414.679,195.812h-0.053h-0.054h-0.053H414.679z"/>
	<path fill="#0D2E54" stroke="#0D2E54" stroke-miterlimit="10" d="M447.178,194.856v0.478v0.531h-14.975v-0.531v-37.49v-0.584
		h14.763v0.584v0.425h-13.647v20.073h10.674v0.531v0.478h-10.674v15.506H447.178z"/>
	<path fill="#0D2E54" stroke="#0D2E54" stroke-miterlimit="10" d="M475.109,194.856v0.478v0.531h-14.975v-0.531v-37.49v-0.584
		h14.763v0.584v0.425H461.25v20.073h10.674v0.531v0.478H461.25v15.506H475.109z"/>
	<path fill="#0D2E54" stroke="#0D2E54" stroke-miterlimit="10" d="M503.572,157.366h1.434l-9.823,15.825
		c0.07,0.036,0.114,0.071,0.132,0.106c0.018,0.036,0.045,0.071,0.08,0.106l11.258,22.25h-1.274l-10.833-21.4l-5.629,9.187v12.373
		h-0.558h-0.558v-38.499h0.558h0.558v24.109L503.572,157.366z"/>
</g>
<g>
	<polygon fill="#39988E" points="54.688,40.632 60.993,68.064 67.297,40.632 60.993,45.829 	"/>
	<polygon fill="#39988E" points="35.604,55.912 60.993,68.064 43.456,46.048 43.596,54.216 	"/>
	<polygon fill="#39988E" points="35.711,80.438 60.993,68.064 32.845,68.16 39.339,73.118 	"/>
	<polygon fill="#39988E" points="54.927,95.55 60.993,68.064 43.536,90.144 51.459,88.152 	"/>
	<polygon fill="#39988E" points="78.818,89.848 60.993,68.064 67.52,95.445 70.862,87.99 	"/>
	<polygon fill="#39988E" points="89.136,67.586 60.993,68.064 86.521,79.92 82.745,72.675 	"/>
	<polygon fill="#39988E" points="78,45.75 60.918,68.064 86.058,55.479 78,53.92 	"/>
	<polygon fill="#42A594" points="43.345,46.137 60.993,68.064 54.688,40.632 51.285,48.06 	"/>
	<polygon fill="#42A594" points="32.846,68.211 60.993,68.064 35.606,55.908 39.296,63.197 	"/>
	<polygon fill="#42A594" points="43.572,90.173 60.993,68.064 35.668,80.349 43.669,82.003 	"/>
	<polygon fill="#42A594" points="67.514,95.446 60.993,68.064 54.906,95.546 61.169,90.299 	"/>
	<polygon fill="#42A594" points="86.527,79.907 60.993,68.064 78.795,89.867 78.556,81.7 	"/>
	<polygon fill="#42A594" points="86.125,55.39 60.993,68.064 89.137,67.633 82.584,62.753 	"/>
	<polygon fill="#42A594" points="67.297,40.632 60.993,68.064 78.149,45.75 70.468,47.949 	"/>
</g>
<g opacity="0.5">
	<path fill="#C8C8C8" d="M33.24,11.407c0,0,0.105,0.499,0.228,1.369c0.029,0.218,0.062,0.458,0.098,0.721
		c0.014,0.268,0.007,0.56,0.009,0.875c0.005,0.631,0.015,1.363-0.124,2.12c-0.054,0.387-0.11,0.789-0.167,1.206
		c-0.106,0.408-0.215,0.829-0.327,1.262c-0.198,0.884-0.614,1.74-0.978,2.66c-0.471,0.862-0.915,1.795-1.552,2.62
		c-0.565,0.88-1.306,1.641-2.009,2.432c-0.791,0.704-1.551,1.446-2.431,2.011c-0.823,0.64-1.759,1.08-2.619,1.554
		c-0.921,0.364-1.777,0.78-2.66,0.979c-0.433,0.112-0.855,0.222-1.263,0.327c-0.417,0.058-0.82,0.113-1.207,0.167
		c-0.762,0.139-1.479,0.128-2.104,0.121c-0.312-0.003-0.602,0.005-0.87-0.009c-0.268-0.035-0.515-0.068-0.738-0.097
		c-0.885-0.123-1.374-0.229-1.374-0.229s0.496-0.156,1.334-0.366c0.208-0.052,0.438-0.109,0.689-0.172
		c0.246-0.092,0.512-0.169,0.794-0.263c0.564-0.181,1.192-0.372,1.851-0.656c0.329-0.132,0.671-0.269,1.026-0.412
		c0.341-0.168,0.693-0.342,1.056-0.521c0.74-0.307,1.434-0.808,2.195-1.206c0.703-0.51,1.469-0.96,2.153-1.551
		c0.726-0.535,1.37-1.185,2.047-1.797c0.612-0.676,1.264-1.319,1.799-2.046c0.594-0.683,1.04-1.451,1.553-2.152
		c0.399-0.761,0.899-1.455,1.207-2.195c0.179-0.362,0.353-0.715,0.522-1.056c0.142-0.355,0.279-0.697,0.411-1.026
		c0.284-0.664,0.473-1.277,0.653-1.835c0.093-0.279,0.171-0.543,0.263-0.789c0.063-0.257,0.12-0.493,0.172-0.706
		C33.086,11.892,33.24,11.407,33.24,11.407z"/>
</g>
<g opacity="0.5">
	<polygon fill="#C8C8C8" points="22.748,23.046 7.231,6.884 24.768,20.828 	"/>
</g>
<g opacity="0.5">
	<polygon fill="#C8C8C8" points="24.691,19.609 21.275,9.265 27.383,18.285 	"/>
</g>
<g opacity="0.5">
	<polygon fill="#C8C8C8" points="27.482,16.974 28.887,10.201 30.482,16.931 	"/>
</g>
<g opacity="0.5">
	<polygon fill="#C8C8C8" points="19.156,25.243 10.137,19.135 20.481,22.551 	"/>
</g>
<g opacity="0.5">
	<polygon fill="#C8C8C8" points="17.803,28.341 11.072,26.746 17.845,25.342 	"/>
</g>
<g opacity="0.5">
	<path fill="#C8C8C8" d="M573.473,29.136c0,0-0.47,0.197-1.301,0.482c-0.208,0.07-0.438,0.147-0.689,0.232
		c-0.261,0.064-0.548,0.112-0.857,0.174c-0.619,0.124-1.336,0.272-2.105,0.278c-0.39,0.02-0.796,0.041-1.216,0.063
		c-0.42-0.027-0.855-0.055-1.301-0.083c-0.905-0.028-1.824-0.275-2.797-0.459c-0.935-0.3-1.936-0.56-2.866-1.031
		c-0.97-0.389-1.857-0.973-2.767-1.515c-0.84-0.644-1.713-1.25-2.433-2.008c-0.784-0.688-1.392-1.523-2.02-2.28
		c-0.531-0.835-1.101-1.598-1.463-2.428c-0.192-0.404-0.379-0.798-0.559-1.178c-0.135-0.399-0.266-0.784-0.391-1.154
		c-0.28-0.722-0.404-1.428-0.515-2.044c-0.056-0.307-0.118-0.59-0.155-0.856c-0.016-0.27-0.03-0.518-0.044-0.743
		c-0.046-0.892-0.034-1.392-0.034-1.392s0.247,0.458,0.611,1.241c0.09,0.194,0.19,0.41,0.299,0.644
		c0.137,0.224,0.263,0.471,0.408,0.73c0.284,0.52,0.591,1.101,0.993,1.694c0.192,0.298,0.391,0.609,0.598,0.93
		c0.23,0.303,0.467,0.616,0.711,0.938c0.441,0.669,1.063,1.256,1.599,1.928c0.633,0.594,1.219,1.261,1.929,1.822
		c0.662,0.613,1.422,1.123,2.151,1.672c0.78,0.474,1.534,0.993,2.348,1.381c0.783,0.455,1.621,0.748,2.407,1.119
		c0.823,0.248,1.599,0.609,2.383,0.772c0.39,0.107,0.769,0.212,1.135,0.313c0.375,0.073,0.738,0.143,1.086,0.21
		c0.706,0.153,1.343,0.224,1.925,0.295c0.291,0.038,0.565,0.065,0.824,0.109c0.264,0.013,0.507,0.025,0.726,0.036
		C572.967,29.075,573.473,29.136,573.473,29.136z"/>
</g>
<g opacity="0.5">
	<polygon fill="#C8C8C8" points="560.065,21.025 573.012,2.74 562.624,22.591 	"/>
</g>
<g opacity="0.5">
	<polygon fill="#C8C8C8" points="563.806,22.286 573.321,16.981 565.614,24.68 	"/>
</g>
<g opacity="0.5">
	<polygon fill="#C8C8C8" points="566.921,24.53 573.837,24.633 567.528,27.468 	"/>
</g>
<g opacity="0.5">
	<polygon fill="#C8C8C8" points="557.23,17.912 561.529,7.903 560.123,18.705 	"/>
</g>
<g opacity="0.5">
	<polygon fill="#C8C8C8" points="553.932,17.167 554.23,10.256 556.886,16.643 	"/>
</g>
<rect x="39" y="350" opacity="0.5" fill="#42A594" width="502" height="6"/>
<rect x="39" y="346" opacity="0.5" fill="#C5E56C" width="502" height="4"/>
<g opacity="0.5">
	<path fill="#C8C8C8" d="M549.662,356.859c0,0-0.105-0.499-0.228-1.369c-0.029-0.218-0.062-0.458-0.098-0.721
		c-0.014-0.268-0.007-0.56-0.009-0.875c-0.005-0.631-0.015-1.363,0.124-2.12c0.054-0.387,0.109-0.79,0.167-1.206
		c0.106-0.408,0.215-0.829,0.327-1.262c0.198-0.884,0.614-1.74,0.978-2.66c0.471-0.862,0.915-1.795,1.552-2.62
		c0.565-0.88,1.306-1.641,2.009-2.432c0.791-0.704,1.551-1.446,2.431-2.011c0.823-0.64,1.759-1.08,2.619-1.554
		c0.921-0.364,1.777-0.78,2.66-0.979c0.433-0.112,0.855-0.222,1.263-0.327c0.417-0.058,0.82-0.113,1.207-0.167
		c0.762-0.139,1.479-0.128,2.104-0.121c0.312,0.003,0.602-0.005,0.87,0.009c0.268,0.035,0.515,0.068,0.738,0.097
		c0.885,0.123,1.374,0.229,1.374,0.229s-0.496,0.156-1.334,0.366c-0.208,0.052-0.438,0.109-0.689,0.172
		c-0.246,0.092-0.512,0.169-0.794,0.263c-0.564,0.181-1.192,0.372-1.851,0.656c-0.329,0.132-0.671,0.269-1.026,0.412
		c-0.341,0.168-0.693,0.342-1.056,0.521c-0.74,0.307-1.434,0.807-2.195,1.206c-0.703,0.51-1.469,0.96-2.153,1.551
		c-0.726,0.535-1.37,1.185-2.047,1.797c-0.612,0.676-1.264,1.319-1.799,2.046c-0.594,0.683-1.04,1.451-1.553,2.152
		c-0.399,0.761-0.899,1.455-1.207,2.195c-0.179,0.362-0.353,0.715-0.522,1.056c-0.142,0.355-0.279,0.697-0.411,1.026
		c-0.284,0.664-0.473,1.277-0.653,1.835c-0.093,0.279-0.171,0.543-0.263,0.789c-0.063,0.257-0.12,0.493-0.172,0.706
		C549.817,356.373,549.662,356.859,549.662,356.859z"/>
</g>
<g opacity="0.5">
	<polygon fill="#C8C8C8" points="560.154,345.22 575.671,361.381 558.134,347.438 	"/>
</g>
<g opacity="0.5">
	<polygon fill="#C8C8C8" points="558.211,348.656 561.627,359 555.519,349.98 	"/>
</g>
<g opacity="0.5">
	<polygon fill="#C8C8C8" points="555.42,351.292 554.015,358.065 552.42,351.334 	"/>
</g>
<g opacity="0.5">
	<polygon fill="#C8C8C8" points="563.746,343.022 572.765,349.131 562.421,345.714 	"/>
</g>
<g opacity="0.5">
	<polygon fill="#C8C8C8" points="565.099,339.924 571.83,341.519 565.057,342.924 	"/>
</g>
<g>
	<polygon fill="#C5E56C" points="517.731,40.539 524.214,68.749 530.697,40.539 524.214,45.883 	"/>
	<polygon fill="#C5E56C" points="498.106,56.252 524.214,68.749 506.181,46.108 506.324,54.508 	"/>
	<polygon fill="#C5E56C" points="498.216,81.473 524.214,68.749 495.269,68.847 501.947,73.946 	"/>
	<polygon fill="#C5E56C" points="517.976,97.014 524.214,68.749 506.262,91.455 514.411,89.406 	"/>
	<polygon fill="#C5E56C" points="542.545,91.15 524.214,68.749 530.926,96.905 534.363,89.239 	"/>
	<polygon fill="#C5E56C" points="553.155,68.256 524.214,68.749 550.466,80.94 546.583,73.49 	"/>
	<polygon fill="#C5E56C" points="541.857,45.802 524.214,68.749 550.059,55.715 542.413,54.204 	"/>
	<polygon fill="#AED160" points="506.066,46.2 524.214,68.749 517.731,40.539 514.232,48.177 	"/>
	<polygon fill="#AED160" points="495.27,68.9 524.214,68.749 498.108,56.248 501.903,63.744 	"/>
	<polygon fill="#AED160" points="506.3,91.484 524.214,68.749 498.171,81.382 506.399,83.083 	"/>
	<polygon fill="#AED160" points="530.921,96.906 524.214,68.749 517.955,97.009 524.396,91.614 	"/>
	<polygon fill="#AED160" points="550.472,80.927 524.214,68.749 542.521,91.169 542.276,82.771 	"/>
	<polygon fill="#AED160" points="550.059,55.715 524.214,68.749 553.156,68.305 546.418,63.287 	"/>
	<polygon fill="#AED160" points="530.697,40.539 524.214,68.749 541.857,45.802 533.958,48.063 	"/>
</g>
<g>
	<rect x="4.76" y="240.698" fill="none" width="573.447" height="21.614"/>
	<path fill="#AED160" d="M146.114,240.698l7.538,20.776h-1.234l-3.321-9.139h-7.185l-3.379,9.139h-1.249l7.625-20.776H146.114z
		 M148.67,251.175l-3.159-8.713l-3.174,8.713H148.67z"/>
	<path fill="#AED160" d="M156.551,248.721h1.176v1.793c0.215-0.294,0.46-0.578,0.734-0.853c1.391-1.381,3.071-2.071,5.04-2.071
		c1.969,0,3.648,0.693,5.04,2.079c1.391,1.386,2.086,3.068,2.086,5.047c0,1.959-0.696,3.637-2.086,5.032
		c-1.391,1.396-3.071,2.094-5.04,2.094c-1.969,0-3.649-0.7-5.04-2.101c-0.274-0.274-0.519-0.559-0.734-0.853v7.449h-1.176V248.721z
		 M157.727,253.496v2.439c0.215,1.116,0.749,2.096,1.602,2.938c1.156,1.156,2.546,1.733,4.173,1.733
		c1.625,0,3.014-0.575,4.165-1.727c1.151-1.15,1.727-2.539,1.727-4.165s-0.576-3.017-1.727-4.173
		c-1.151-1.155-2.54-1.733-4.165-1.733c-1.626,0-3.017,0.578-4.173,1.733C158.476,251.396,157.942,252.38,157.727,253.496z"/>
	<path fill="#AED160" d="M178.979,249.75c-0.833,0.127-1.65,0.656-2.454,1.586c-0.803,0.932-1.205,1.871-1.205,2.821v7.317h-1.175
		v-12.754h1.175v2.763c0.49-1.283,1.494-2.238,3.012-2.865L178.979,249.75z"/>
	<path fill="#AED160" d="M183.635,244.548c0.23,0.226,0.345,0.495,0.345,0.809c0,0.333-0.115,0.612-0.345,0.838
		c-0.23,0.225-0.502,0.338-0.815,0.338c-0.323,0-0.601-0.113-0.831-0.338c-0.23-0.226-0.345-0.505-0.345-0.838
		c0-0.313,0.115-0.583,0.345-0.809c0.23-0.225,0.507-0.338,0.831-0.338C183.133,244.21,183.405,244.323,183.635,244.548z
		 M183.393,248.721v12.754h-1.161v-12.754H183.393z"/>
	<path fill="#AED160" d="M189.437,240.698v20.776h-1.175v-20.776H189.437z"/>
	<path fill="#AED160" d="M208.858,260.299v-17.278l-2.16,1.41l-0.911-0.661l4.232-3.071v19.601h4.511v1.176h-10.285v-1.176H208.858z
		"/>
	<path fill="#AED160" d="M225.878,249.882l-0.97-0.029v-1.161c0.803-0.01,1.462-0.115,1.977-0.315
		c0.514-0.201,1.072-0.622,1.675-1.264s0.904-1.403,0.904-2.285c0-0.891-0.312-1.646-0.933-2.263
		c-0.622-0.617-1.374-0.926-2.255-0.926c-0.872,0-1.626,0.309-2.263,0.926c-0.343,0.353-0.598,0.75-0.764,1.19l-1.117-0.44
		c0.186-0.607,0.519-1.142,0.999-1.602c0.872-0.862,1.92-1.293,3.145-1.293c1.234,0,2.282,0.433,3.144,1.3s1.293,1.903,1.293,3.107
		c0,1.234-0.328,2.204-0.984,2.909s-1.273,1.176-1.851,1.411c1.253,0.411,2.292,1.058,3.115,1.939
		c1.185,1.273,1.778,2.762,1.778,4.467c0,1.714-0.605,3.176-1.814,4.386c-1.21,1.21-2.672,1.814-4.386,1.814
		c-1.705,0-3.164-0.607-4.379-1.822c-0.96-0.97-1.538-2.105-1.733-3.408l1.175-0.427c0.127,1.156,0.607,2.15,1.44,2.983
		c0.97,0.96,2.135,1.439,3.497,1.439c1.381,0,2.556-0.482,3.526-1.447c0.97-0.965,1.455-2.138,1.455-3.519
		c0-1.372-0.473-2.571-1.418-3.601C229.187,250.925,227.769,250.234,225.878,249.882z"/>
	<path fill="#AED160" d="M245.652,253.202h7.347v1.176h-7.347V253.202z"/>
	<path fill="#AED160" d="M272.993,240.698l7.538,20.776h-1.234l-3.321-9.139h-7.185l-3.379,9.139h-1.249l7.625-20.776H272.993z
		 M275.55,251.175l-3.159-8.713l-3.174,8.713H275.55z"/>
	<path fill="#AED160" d="M283.431,248.721h1.176v1.793c0.215-0.294,0.46-0.578,0.734-0.853c1.391-1.381,3.071-2.071,5.04-2.071
		c1.969,0,3.648,0.693,5.039,2.079c1.392,1.386,2.087,3.068,2.087,5.047c0,1.959-0.695,3.637-2.087,5.032
		c-1.391,1.396-3.07,2.094-5.039,2.094c-1.969,0-3.649-0.7-5.04-2.101c-0.274-0.274-0.519-0.559-0.734-0.853v7.449h-1.176V248.721z
		 M284.606,253.496v2.439c0.215,1.116,0.749,2.096,1.602,2.938c1.156,1.156,2.546,1.733,4.173,1.733
		c1.626,0,3.015-0.575,4.165-1.727c1.151-1.15,1.727-2.539,1.727-4.165s-0.575-3.017-1.727-4.173
		c-1.15-1.155-2.539-1.733-4.165-1.733c-1.626,0-3.017,0.578-4.173,1.733C285.355,251.396,284.822,252.38,284.606,253.496z"/>
	<path fill="#AED160" d="M305.858,249.75c-0.833,0.127-1.651,0.656-2.454,1.586c-0.804,0.932-1.205,1.871-1.205,2.821v7.317h-1.175
		v-12.754h1.175v2.763c0.49-1.283,1.494-2.238,3.013-2.865L305.858,249.75z"/>
	<path fill="#AED160" d="M310.514,244.548c0.23,0.226,0.346,0.495,0.346,0.809c0,0.333-0.115,0.612-0.346,0.838
		c-0.229,0.225-0.502,0.338-0.815,0.338c-0.323,0-0.6-0.113-0.83-0.338c-0.23-0.226-0.345-0.505-0.345-0.838
		c0-0.313,0.114-0.583,0.345-0.809c0.23-0.225,0.507-0.338,0.83-0.338C310.012,244.21,310.284,244.323,310.514,244.548z
		 M310.271,248.721v12.754h-1.161v-12.754H310.271z"/>
	<path fill="#AED160" d="M316.316,240.698v20.776h-1.176v-20.776H316.316z"/>
	<path fill="#AED160" d="M335.737,260.299v-17.278l-2.16,1.41l-0.911-0.661l4.231-3.071v19.601h4.511v1.176h-10.285v-1.176H335.737z
		"/>
	<path fill="#AED160" d="M356.857,247.898c-1.783,2.547-3.242,5.01-4.379,7.391c-1.136,2.39-1.748,4.452-1.836,6.186h-1.22
		c0.088-2.076,0.729-4.329,1.925-6.759c1.185-2.429,2.557-4.785,4.114-7.067c1.547-2.282,2.487-4.207,2.82-5.774h-10.917v-1.176
		h12.239C359.556,242.952,358.64,245.352,356.857,247.898z"/>
	<path fill="#AED160" d="M366.355,259.314l-2.41,5.011h-1.087l1.337-5.011H366.355z"/>
	<path fill="#AED160" d="M380.766,261.475c5.437-8.297,8.365-12.814,8.786-13.555c0.421-0.739,0.632-1.447,0.632-2.123
		c0-0.333-0.039-0.671-0.117-1.014c-0.245-1.077-0.828-1.905-1.749-2.483c-0.656-0.392-1.337-0.587-2.042-0.587
		c-0.313,0-0.627,0.034-0.94,0.103c-1.058,0.245-1.876,0.828-2.454,1.748c-0.323,0.51-0.519,1.014-0.587,1.514l-1.205-0.177
		c0.059-0.655,0.299-1.312,0.72-1.969c0.783-1.224,1.866-1.993,3.247-2.307c0.421-0.098,0.833-0.146,1.234-0.146
		c0.96,0,1.866,0.27,2.718,0.808c1.215,0.765,1.979,1.837,2.293,3.218c0.117,0.51,0.176,0.994,0.176,1.455
		c0,0.812-0.232,1.638-0.698,2.476c-0.465,0.838-3.029,4.792-7.691,11.864h8.39v1.176H380.766z"/>
	<path fill="#AED160" d="M410.481,251.263c0,3.282-0.693,5.865-2.079,7.751c-1.387,1.886-3.063,2.828-5.033,2.828
		c-1.969,0-3.65-0.942-5.047-2.828c-1.396-1.886-2.094-4.469-2.094-7.751c0-3.271,0.698-5.85,2.094-7.735
		c1.396-1.886,3.078-2.829,5.047-2.829c1.97,0,3.646,0.943,5.033,2.829C409.788,245.413,410.481,247.991,410.481,251.263z
		 M409.247,251.263c0-2.938-0.576-5.226-1.727-6.861c-1.151-1.636-2.54-2.454-4.166-2.454s-3.015,0.818-4.165,2.454
		c-1.151,1.636-1.727,3.923-1.727,6.861c0,2.949,0.575,5.241,1.727,6.877c1.15,1.636,2.539,2.453,4.165,2.453
		s3.015-0.817,4.166-2.453C408.671,256.504,409.247,254.212,409.247,251.263z"/>
	<path fill="#AED160" d="M420.053,260.299v-17.278l-2.16,1.41l-0.911-0.661l4.231-3.071v19.601h4.511v1.176h-10.285v-1.176H420.053z
		"/>
	<path fill="#AED160" d="M433.341,247.148c0.431-0.137,0.915-0.264,1.454-0.382c0.549-0.098,1.082-0.146,1.602-0.146
		c0.96,0,1.876,0.151,2.748,0.455c1.948,0.666,3.403,1.896,4.363,3.688c0.598,1.116,0.896,2.258,0.896,3.423
		c0,0.735-0.112,1.47-0.338,2.204c-0.598,1.939-1.793,3.395-3.585,4.364c-1.098,0.578-2.224,0.866-3.38,0.866
		c-0.734,0-1.483-0.117-2.248-0.353c-1.558-0.479-2.776-1.322-3.658-2.526l0.837-0.911c0.735,1.087,1.798,1.842,3.188,2.263
		c0.627,0.195,1.239,0.294,1.837,0.294c0.97,0,1.915-0.245,2.836-0.735c1.499-0.793,2.498-2.003,2.997-3.629
		c0.196-0.627,0.294-1.244,0.294-1.852c0-0.97-0.25-1.915-0.749-2.836c-0.794-1.488-2.004-2.517-3.629-3.085
		c-0.706-0.245-1.475-0.367-2.308-0.367c-1.106,0-2.331,0.211-3.673,0.632l-0.926-0.809l2.38-6.582v-0.427h6.495v1.176h-5.51
		L433.341,247.148z"/>
</g>
<rect x="40" y="12" opacity="0.5" fill="#42A594" width="501" height="8"/>
<rect x="40" y="20" opacity="0.5" fill="#C5E56C" width="501" height="5"/>
<rect x="12" y="41" opacity="0.5" fill="#42A594" width="6" height="286"/>
<rect x="18" y="41" opacity="0.5" fill="#C5E56C" width="6" height="286"/>
<rect x="563" y="39" opacity="0.5" fill="#42A594" width="5" height="288"/>
<rect x="559" y="39" opacity="0.5" fill="#C5E56C" width="4" height="288"/>
<g>
	<polygon fill="#C5E56C" points="27.863,190.857 43.541,259.078 59.219,190.857 43.541,203.78 	"/>
	<polygon fill="#C5E56C" points="-19.599,228.857 43.541,259.078 -0.071,204.324 0.277,224.639 	"/>
	<polygon fill="#C5E56C" points="-19.332,289.851 43.541,259.078 -26.459,259.315 -10.31,271.646 	"/>
	<polygon fill="#C5E56C" points="28.455,327.433 43.541,259.078 0.127,313.989 19.832,309.035 	"/>
	<polygon fill="#C5E56C" points="87.871,313.252 43.541,259.078 59.773,327.17 68.085,308.63 	"/>
	<polygon fill="#C5E56C" points="113.53,257.887 43.541,259.078 107.028,288.562 97.636,270.544 	"/>
	<polygon fill="#C5E56C" points="86.207,203.584 43.541,259.078 106.042,227.557 87.552,223.903 	"/>
	<polygon fill="#AED160" points="-0.348,204.546 43.541,259.078 27.863,190.857 19.4,209.328 	"/>
	<polygon fill="#AED160" points="-26.458,259.443 43.541,259.078 -19.594,228.847 -10.416,246.974 	"/>
	<polygon fill="#AED160" points="0.217,314.06 43.541,259.078 -19.44,289.629 0.458,293.743 	"/>
	<polygon fill="#AED160" points="59.76,327.173 43.541,259.078 28.404,327.422 43.98,314.374 	"/>
	<polygon fill="#AED160" points="107.043,288.53 43.541,259.078 87.814,313.299 87.22,292.989 	"/>
	<polygon fill="#AED160" points="106.042,227.557 43.541,259.078 113.532,258.006 97.237,245.869 	"/>
	<polygon fill="#AED160" points="59.219,190.857 43.541,259.078 86.207,203.584 67.104,209.052 	"/>
</g>
<g>
	<polygon fill="#39988E" points="521.106,191.382 536.721,259.328 552.336,191.382 536.721,204.254 	"/>
	<polygon fill="#39988E" points="473.836,229.229 536.721,259.328 493.285,204.795 493.631,225.029 	"/>
	<polygon fill="#39988E" points="474.102,289.977 536.721,259.328 467.004,259.564 483.088,271.845 	"/>
	<polygon fill="#39988E" points="521.696,327.408 536.721,259.328 493.482,314.018 513.108,309.084 	"/>
	<polygon fill="#39988E" points="580.873,313.284 536.721,259.328 552.888,327.146 561.167,308.68 	"/>
	<polygon fill="#39988E" points="606.429,258.142 536.721,259.328 599.953,288.693 590.599,270.749 	"/>
	<polygon fill="#39988E" points="578,204.058 536.113,259.328 598.169,228.155 578,224.295 	"/>
	<polygon fill="#42A594" points="493.01,205.016 536.721,259.328 521.106,191.382 512.677,209.779 	"/>
	<polygon fill="#42A594" points="467.005,259.691 536.721,259.328 473.841,229.219 482.982,247.273 	"/>
	<polygon fill="#42A594" points="493.572,314.088 536.721,259.328 473.994,289.756 493.812,293.853 	"/>
	<polygon fill="#42A594" points="552.875,327.149 536.721,259.328 521.646,327.396 537.158,314.401 	"/>
	<polygon fill="#42A594" points="599.967,288.662 536.721,259.328 580.816,313.33 580.224,293.103 	"/>
	<polygon fill="#42A594" points="598.971,227.934 536.721,259.328 606.431,258.26 590.201,246.172 	"/>
	<polygon fill="#42A594" points="552.336,191.382 536.721,259.328 579.216,204.058 560.189,209.504 	"/>
</g>
<path opacity="0.75" fill="none" stroke="#C8C8C8" stroke-width="2" stroke-linecap="square" stroke-linejoin="bevel" stroke-miterlimit="10" d="
	M568.097,39.842C552.552,39.842,540.195,27,540.119,12H40.575C40.499,27,28,39.505,12,39.588v288.545
	c16,0.083,28.328,12.937,28.328,28.477c0,0.047,0.247-0.611,0.246,0.389h499.544c0-1-0.003-0.343-0.003-0.389
	c0-15.592,12.39-28.356,27.981-28.356c0.051,0-0.097-0.121-0.097-0.121V39.588C568,39.588,568.148,39.842,568.097,39.842z"/>
</svg>
